<svg width="133" height="129" viewBox="0 0 133 129" fill="none" xmlns="http://www.w3.org/2000/svg">
<circle cx="64" cy="64" r="64" fill="#ECECED"/>
<path d="M95.8367 85.7764C95.5364 84.3332 94.1224 83.4072 92.6792 83.7068C91.236 84.0071 90.3093 85.4211 90.6103 86.8643C90.7542 87.5581 90.5825 88.2693 90.1383 88.8157C89.8818 89.1313 89.309 89.661 88.3593 89.661H40.6407C39.691 89.661 39.1189 89.1313 38.8617 88.8157C38.4175 88.27 38.2458 87.5581 38.3904 86.8643C40.9055 74.7814 51.5682 65.9575 63.8778 65.6683C64.0843 65.6759 64.2915 65.6815 64.5 65.6815C64.696 65.6815 64.8907 65.6766 65.0847 65.6697C73.773 65.8594 81.808 70.2488 86.6694 77.4988C87.4904 78.7231 89.1484 79.0505 90.3733 78.2295C91.5975 77.4085 91.9249 75.7498 91.1032 74.5256C87.1469 68.6242 81.4367 64.3036 74.9187 62.0624C78.827 58.9758 81.3408 54.1964 81.3408 48.8407C81.3408 39.5545 73.7862 32 64.5 32C55.2138 32 47.6592 39.5545 47.6592 48.8407C47.6592 54.1992 50.1758 58.9813 54.0876 62.0672C50.5018 63.3012 47.1364 65.1657 44.1784 67.5988C38.5523 72.2266 34.6398 78.682 33.1633 85.7764C32.6899 88.0503 33.2571 90.3854 34.7191 92.1845C36.1748 93.9739 38.3334 95 40.6407 95H88.3593C90.6667 95 92.8252 93.9739 94.2802 92.1845C95.7429 90.3861 96.3101 88.0503 95.8367 85.7764V85.7764ZM52.9982 48.8407C52.9982 42.4986 58.1579 37.339 64.5 37.339C70.8422 37.339 76.0018 42.4986 76.0018 48.8407C76.0018 55.016 71.1091 60.0679 64.9978 60.33C64.8316 60.3272 64.6662 60.3223 64.5 60.3223C64.313 60.3223 64.126 60.3251 63.9397 60.3279C57.8568 60.0345 52.9982 54.9945 52.9982 48.8407V48.8407Z" fill="#622181"/>
<path d="M100.456 117.46C94.6813 111.635 94.7225 102.231 100.548 96.456V96.456C106.374 90.6813 115.777 90.7225 121.552 96.5481V96.5481C127.327 102.374 127.286 111.777 121.46 117.552V117.552C115.635 123.327 106.231 123.286 100.456 117.46V117.46Z" fill="url(#paint0_linear)"/>
<path d="M111.619 115H110.381C109.315 115 108.447 114.132 108.447 113.066V109.522H104.933C103.867 109.522 103 108.654 103 107.588V106.35C103 105.284 103.867 104.416 104.933 104.416H108.447V100.934C108.447 99.8673 109.315 98.9999 110.381 98.9999H111.619C112.685 98.9999 113.553 99.8673 113.553 100.934V104.416H117.067C118.133 104.416 119 105.284 119 106.35V107.588C119 108.654 118.133 109.522 117.067 109.522H113.553V109.971C113.553 110.355 113.241 110.667 112.857 110.667C112.473 110.667 112.162 110.355 112.162 109.971V108.826C112.162 108.442 112.473 108.131 112.857 108.131H117.067C117.366 108.131 117.609 107.887 117.609 107.588V106.35C117.609 106.051 117.366 105.807 117.067 105.807H112.857C112.473 105.807 112.162 105.496 112.162 105.112V100.934C112.162 100.634 111.918 100.391 111.619 100.391H110.381C110.082 100.391 109.838 100.634 109.838 100.934V105.112C109.838 105.496 109.527 105.807 109.143 105.807H104.933C104.634 105.807 104.391 106.051 104.391 106.35V107.588C104.391 107.887 104.634 108.131 104.933 108.131H109.143C109.527 108.131 109.838 108.442 109.838 108.826V113.066C109.838 113.365 110.082 113.609 110.381 113.609H111.619C111.918 113.609 112.162 113.365 112.162 113.066C112.162 112.682 112.473 112.371 112.857 112.371C113.241 112.371 113.553 112.682 113.553 113.066C113.553 114.132 112.685 115 111.619 115V115Z" fill="white"/>
<defs>
<linearGradient id="paint0_linear" x1="100.548" y1="96.456" x2="121.46" y2="117.552" gradientUnits="userSpaceOnUse">
<stop stop-color="#FF00D6"/>
<stop offset="1" stop-color="#FF4D00"/>
</linearGradient>
</defs>
</svg>
