<svg width="82" height="82" viewBox="0 0 82 82" fill="none" xmlns="http://www.w3.org/2000/svg">
<path d="M44.1728 82H37.8272C32.3635 82 27.9181 77.5546 27.9181 72.0909V53.9241H9.9091C4.4454 53.9241 0 49.4787 0 44.014V37.6694C0 32.2048 4.4454 27.7594 9.9091 27.7594H27.9181V9.91003C27.9181 4.4454 32.3635 0 37.8272 0H44.1728C49.6365 0 54.0819 4.4454 54.0819 9.91003V27.7594H72.0909C77.5546 27.7594 82 32.2048 82 37.6694V44.014C82 49.4787 77.5546 53.9241 72.0909 53.9241H54.0819V56.228C54.0819 58.1968 52.4862 59.7925 50.5174 59.7925C48.5486 59.7925 46.9529 58.1968 46.9529 56.228V50.3596C46.9529 48.3907 48.5486 46.7951 50.5174 46.7951H72.0909C73.6234 46.7951 74.871 45.5475 74.871 44.014V37.6694C74.871 36.136 73.6234 34.8884 72.0909 34.8884H50.5174C48.5486 34.8884 46.9529 33.2927 46.9529 31.3239V9.91003C46.9529 8.37655 45.7053 7.12898 44.1728 7.12898H37.8272C36.2947 7.12898 35.0471 8.37655 35.0471 9.91003V31.3239C35.0471 33.2927 33.4514 34.8884 31.4826 34.8884H9.9091C8.37655 34.8884 7.12898 36.136 7.12898 37.6694V44.014C7.12898 45.5475 8.37655 46.7951 9.9091 46.7951H31.4826C33.4514 46.7951 35.0471 48.3907 35.0471 50.3596V72.0909C35.0471 73.6234 36.2947 74.871 37.8272 74.871H44.1728C45.7053 74.871 46.9529 73.6234 46.9529 72.0909C46.9529 70.1221 48.5486 68.5264 50.5174 68.5264C52.4862 68.5264 54.0819 70.1221 54.0819 72.0909C54.0819 77.5546 49.6365 82 44.1728 82V82Z" fill="white"/>
</svg>
