<svg width="43" height="43" viewBox="0 0 43 43" fill="none" xmlns="http://www.w3.org/2000/svg">
<rect y="20.912" width="29.7045" height="29.7045" rx="14.8523" transform="rotate(-44.7488 0 20.912)" fill="url(#paint0_linear)"/>
<path d="M21.6191 28.9999H20.3809C19.3148 28.9999 18.4474 28.1325 18.4474 27.0664V23.5216H14.9335C13.8674 23.5216 13 22.6543 13 21.588V20.35C13 19.2837 13.8674 18.4163 14.9335 18.4163H18.4474V14.9335C18.4474 13.8673 19.3148 12.9999 20.3809 12.9999H21.6191C22.6852 12.9999 23.5526 13.8673 23.5526 14.9335V18.4163H27.0665C28.1326 18.4163 29 19.2837 29 20.35V21.588C29 22.6543 28.1326 23.5216 27.0665 23.5216H23.5526V23.9712C23.5526 24.3554 23.2412 24.6667 22.857 24.6667C22.4729 24.6667 22.1615 24.3554 22.1615 23.9712V22.8261C22.1615 22.442 22.4729 22.1306 22.857 22.1306H27.0665C27.3656 22.1306 27.609 21.8872 27.609 21.588V20.35C27.609 20.0508 27.3656 19.8074 27.0665 19.8074H22.857C22.4729 19.8074 22.1615 19.496 22.1615 19.1119V14.9335C22.1615 14.6343 21.9181 14.3909 21.6191 14.3909H20.3809C20.0819 14.3909 19.8385 14.6343 19.8385 14.9335V19.1119C19.8385 19.496 19.5271 19.8074 19.143 19.8074H14.9335C14.6344 19.8074 14.391 20.0508 14.391 20.35V21.588C14.391 21.8872 14.6344 22.1306 14.9335 22.1306H19.143C19.5271 22.1306 19.8385 22.442 19.8385 22.8261V27.0664C19.8385 27.3654 20.0819 27.6089 20.3809 27.6089H21.6191C21.9181 27.6089 22.1615 27.3654 22.1615 27.0664C22.1615 26.6822 22.4729 26.3709 22.857 26.3709C23.2412 26.3709 23.5526 26.6822 23.5526 27.0664C23.5526 28.1325 22.6852 28.9999 21.6191 28.9999V28.9999Z" fill="white"/>
<defs>
<linearGradient id="paint0_linear" x1="14.8523" y1="20.912" x2="14.8523" y2="50.6165" gradientUnits="userSpaceOnUse">
<stop stop-color="#FF00D6"/>
<stop offset="1" stop-color="#FF4D00"/>
</linearGradient>
</defs>
</svg>
