<svg width="40" height="40" viewBox="0 0 40 40" fill="none" xmlns="http://www.w3.org/2000/svg">
<path d="M21.5477 40H18.4523C15.7871 40 13.6186 37.8315 13.6186 35.1663V26.3044H4.83371C2.16849 26.3044 0 24.1359 0 21.4703V18.3753C0 15.7097 2.16849 13.5412 4.83371 13.5412H13.6186V4.83416C13.6186 2.16849 15.7871 0 18.4523 0H21.5477C24.2129 0 26.3814 2.16849 26.3814 4.83416V13.5412H35.1663C37.8315 13.5412 40 15.7097 40 18.3753V21.4703C40 24.1359 37.8315 26.3044 35.1663 26.3044H26.3814V27.4283C26.3814 28.3887 25.603 29.1671 24.6426 29.1671C23.6822 29.1671 22.9038 28.3887 22.9038 27.4283V24.5656C22.9038 23.6052 23.6822 22.8269 24.6426 22.8269H35.1663C35.9139 22.8269 36.5224 22.2183 36.5224 21.4703V18.3753C36.5224 17.6273 35.9139 17.0187 35.1663 17.0187H24.6426C23.6822 17.0187 22.9038 16.2403 22.9038 15.2799V4.83416C22.9038 4.08612 22.2953 3.47755 21.5477 3.47755H18.4523C17.7047 3.47755 17.0962 4.08612 17.0962 4.83416V15.2799C17.0962 16.2403 16.3178 17.0187 15.3574 17.0187H4.83371C4.08612 17.0187 3.47755 17.6273 3.47755 18.3753V21.4703C3.47755 22.2183 4.08612 22.8269 4.83371 22.8269H15.3574C16.3178 22.8269 17.0962 23.6052 17.0962 24.5656V35.1663C17.0962 35.9139 17.7047 36.5224 18.4523 36.5224H21.5477C22.2953 36.5224 22.9038 35.9139 22.9038 35.1663C22.9038 34.2059 23.6822 33.4275 24.6426 33.4275C25.603 33.4275 26.3814 34.2059 26.3814 35.1663C26.3814 37.8315 24.2129 40 21.5477 40V40Z" fill="#3D3C3F"/>
</svg>
