<svg width="97" height="92" viewBox="0 0 97 92" fill="none" xmlns="http://www.w3.org/2000/svg">
<g filter="url(#filter0_d)">
<path d="M82.2253 31.943H38.5848L53.3416 17.1724C56.2817 14.2324 57.1121 10.03 55.5108 6.2032C53.9086 2.37727 50.3239 0 46.153 0C43.4416 0 40.8935 1.05082 38.9769 2.95969L6.96323 34.8887C5.0524 36.7886 4 39.3143 4 42C4 44.6865 5.0524 47.2114 6.95993 49.1072L38.9785 81.0411C40.8935 82.9492 43.4416 84 46.153 84C50.3239 84 53.9086 81.6227 55.5108 77.7968C57.1121 73.97 56.2809 69.7676 53.3424 66.8292L38.5848 52.0562H64.8511C66.601 52.0562 68.0207 50.6461 68.0207 48.9062C68.0207 47.1672 66.601 45.7562 64.8511 45.7562H30.972C29.6918 45.7562 28.5371 46.5216 28.0459 47.6954C27.554 48.8701 27.8206 50.2228 28.722 51.126L48.8455 71.2688C50.5013 72.925 49.8856 74.8314 49.6577 75.3769C49.4291 75.9216 48.5022 77.7 46.153 77.7C45.1526 77.7 44.1729 77.2964 43.4671 76.5934L11.4461 44.6562C10.7321 43.9466 10.3392 43.0032 10.3392 42C10.3392 40.9968 10.7321 40.0534 11.4502 39.3397L43.4663 7.40824C44.1729 6.70359 45.1526 6.3 46.153 6.3C48.503 6.3 49.4299 8.07844 49.6577 8.62313C49.8856 9.16781 50.5013 11.075 48.8439 12.7321L28.722 32.874C27.8206 33.7764 27.554 35.1299 28.0459 36.3038C28.5371 37.4784 29.6918 38.243 30.972 38.243H82.2253C84.3094 38.243 86.0057 39.9287 86.0057 42C86.0057 44.0713 84.3094 45.757 82.2253 45.757C80.4746 45.757 79.0557 47.1672 79.0557 48.907C79.0557 50.6461 80.4746 52.057 82.2253 52.057C87.8051 52.057 92.3448 47.5453 92.3448 42C92.344 36.4547 87.8051 31.943 82.2253 31.943V31.943Z" fill="#622181"/>
</g>
<defs>
<filter id="filter0_d" x="0" y="0" width="96.3448" height="92" filterUnits="userSpaceOnUse" color-interpolation-filters="sRGB">
<feFlood flood-opacity="0" result="BackgroundImageFix"/>
<feColorMatrix in="SourceAlpha" type="matrix" values="0 0 0 0 0 0 0 0 0 0 0 0 0 0 0 0 0 0 127 0"/>
<feOffset dy="4"/>
<feGaussianBlur stdDeviation="2"/>
<feColorMatrix type="matrix" values="0 0 0 0 0 0 0 0 0 0 0 0 0 0 0 0 0 0 0.25 0"/>
<feBlend mode="normal" in2="BackgroundImageFix" result="effect1_dropShadow"/>
<feBlend mode="normal" in="SourceGraphic" in2="effect1_dropShadow" result="shape"/>
</filter>
</defs>
</svg>
