<svg width="32" height="31" viewBox="0 0 32 31" fill="none" xmlns="http://www.w3.org/2000/svg">
<path d="M28.3345 11.511H12.5272L17.8724 6.18826C18.9373 5.1288 19.2381 3.6144 18.6581 2.23539C18.0778 0.856672 16.7793 0 15.2685 0C14.2864 0 13.3635 0.378674 12.6692 1.06655L1.07333 12.5725C0.381198 13.2571 0 14.1673 0 15.1351C0 16.1033 0.381198 17.0131 1.07214 17.6963L12.6698 29.204C13.3635 29.8916 14.2864 30.2703 15.2685 30.2703C16.7793 30.2703 18.0778 29.4136 18.6581 28.0349C19.2381 26.6559 18.937 25.1415 17.8727 24.0826L12.5272 18.759H22.0413C22.6752 18.759 23.1894 18.2508 23.1894 17.6239C23.1894 16.9972 22.6752 16.4887 22.0413 16.4887H9.76973C9.30602 16.4887 8.88774 16.7645 8.70985 17.1875C8.53166 17.6109 8.62823 18.0983 8.95471 18.4238L16.2438 25.6824C16.8436 26.2793 16.6205 26.9663 16.538 27.1628C16.4552 27.3591 16.1194 28 15.2685 28C14.9062 28 14.5513 27.8546 14.2957 27.6012L2.69709 16.0923C2.43847 15.8366 2.29616 15.4967 2.29616 15.1351C2.29616 14.7736 2.43847 14.4337 2.69858 14.1765L14.2954 2.66964C14.5513 2.41571 14.9062 2.27027 15.2685 2.27027C16.1197 2.27027 16.4555 2.91115 16.538 3.10743C16.6205 3.30372 16.8436 3.991 16.2432 4.58813L8.95471 11.8465C8.62823 12.1717 8.53166 12.6594 8.70985 13.0824C8.88774 13.5057 9.30602 13.7812 9.76973 13.7812H28.3345C29.0894 13.7812 29.7038 14.3887 29.7038 15.1351C29.7038 15.8815 29.0894 16.489 28.3345 16.489C27.7004 16.489 27.1864 16.9972 27.1864 17.6242C27.1864 18.2508 27.7004 18.7593 28.3345 18.7593C30.3556 18.7593 32 17.1334 32 15.1351C31.9997 13.1368 30.3556 11.511 28.3345 11.511Z" fill="#B260A4"/>
</svg>
