<svg width="50" height="50" viewBox="0 0 50 50" fill="none" xmlns="http://www.w3.org/2000/svg">
<path d="M41 25C41 33.8367 33.8367 41 25 41C16.1633 41 9 33.8367 9 25C9 16.1633 16.1633 9 25 9C33.8367 9 41 16.1633 41 25Z" fill="url(#paint0_linear)"/>
<path d="M26.3269 24.9988L35.1953 16.1307C35.5613 15.7645 35.5613 15.171 35.1953 14.8047C34.8291 14.4388 34.2356 14.4388 33.8694 14.8047L25.0012 23.6732L16.1328 14.8047C15.7666 14.4388 15.1731 14.4388 14.8069 14.8047C14.4409 15.171 14.4409 15.7645 14.8069 16.1307L23.6753 24.9991L14.8069 33.8672C14.4409 34.2335 14.4409 34.827 14.8069 35.1932C14.99 35.3763 15.23 35.4678 15.4697 35.4678C15.7097 35.4678 15.9497 35.3763 16.1326 35.1932L25.001 26.3248L33.8694 35.1932C34.0525 35.3763 34.2925 35.4678 34.5322 35.4678C34.7722 35.4678 35.0122 35.3763 35.1951 35.1932C35.5613 34.827 35.5613 34.2335 35.1951 33.8672L26.3269 24.9988Z" fill="white"/>
<defs>
<linearGradient id="paint0_linear" x1="9" y1="25" x2="41" y2="25" gradientUnits="userSpaceOnUse">
<stop stop-color="#FF00D6"/>
<stop offset="1" stop-color="#FF4D00"/>
</linearGradient>
</defs>
</svg>
