<svg width="80" height="80" viewBox="0 0 80 80" fill="none" xmlns="http://www.w3.org/2000/svg">
<path d="M45.0658 39.9992L78.9513 6.11495C80.3496 4.7157 80.3496 2.44799 78.9513 1.04874C77.552 -0.349579 75.2843 -0.349579 73.885 1.04874L40.0005 34.9339L6.11501 1.04874C4.71575 -0.349579 2.44801 -0.349579 1.04875 1.04874C-0.349582 2.44799 -0.349582 4.7157 1.04875 6.11495L34.9342 40.0001L1.04875 73.8843C-0.349582 75.2836 -0.349582 77.5513 1.04875 78.9506C1.74838 79.6502 2.66536 80 3.58141 80C4.49839 80 5.41538 79.6502 6.11408 78.9506L39.9995 45.0654L73.885 78.9506C74.5846 79.6502 75.5016 80 76.4177 80C77.3346 80 78.2516 79.6502 78.9503 78.9506C80.3496 77.5513 80.3496 75.2836 78.9503 73.8843L45.0658 39.9992Z" fill="#B260A4"/>
</svg>
