<svg width="45" height="40" viewBox="0 0 45 40" fill="none" xmlns="http://www.w3.org/2000/svg">
<path d="M37.1757 0H7.05545C3.16494 0 0 3.16494 0 7.05595V26.8222C0 30.7127 3.16494 33.8777 7.05545 33.8777H18.8641C19.9249 33.8777 20.7856 33.0175 20.7856 31.9562C20.7856 30.8954 19.9249 30.0347 18.8641 30.0347H7.05545C5.28408 30.0347 3.84297 28.5936 3.84297 26.8222V7.79652L18.3897 16.842C19.5391 17.5566 20.8271 17.9138 22.1156 17.9138C23.4041 17.9138 24.6921 17.5566 25.8415 16.842L40.3882 7.79652V17.7517C40.3882 18.813 41.2489 19.6732 42.3097 19.6732C43.371 19.6732 44.2312 18.813 44.2312 17.7517V7.05595C44.2312 3.16494 41.0662 0 37.1757 0V0ZM23.8119 13.5785C22.7656 14.229 21.4656 14.229 20.4193 13.5785L5.45371 4.2728C5.92558 4.00009 6.4725 3.84297 7.05545 3.84297H37.1757C37.7587 3.84297 38.3056 4.00009 38.7774 4.2728L23.8119 13.5785Z" fill="#3D3C3F"/>
<path d="M42.9721 31.3646C42.734 31.266 41.7607 30.7902 41.7607 29.6203V27.0513C41.7607 23.3975 39.2383 20.2901 35.8456 19.3989V18.4361C35.8456 17.3753 34.985 16.5146 33.9242 16.5146C32.8628 16.5146 32.0027 17.3753 32.0027 18.4361V19.3779C28.5665 20.239 26.002 23.3669 26.002 27.0513V29.6203C26.002 30.7902 25.0283 31.2655 24.7901 31.3646C24.0035 31.6238 23.5311 32.3389 23.5311 33.169C23.5311 35.7885 25.4056 38.4986 28.5415 38.4986H32.2268C32.3309 39.3433 33.0515 39.9998 33.9242 39.9998C34.7963 39.9998 35.5169 39.3433 35.621 38.4986H39.2207C42.3572 38.4986 44.2311 35.7885 44.2311 33.169C44.2311 32.3384 43.7592 31.6233 42.9721 31.3646V31.3646ZM39.2207 34.6557H28.5415C28.0942 34.6557 27.8169 34.4025 27.6458 34.1052C28.7707 33.2256 29.845 31.7599 29.845 29.6203V27.0513C29.845 24.8386 31.6424 23.0147 33.8516 22.9851C33.8616 22.9851 33.8711 22.9846 33.8811 22.9846C33.8911 22.9846 33.9011 22.9851 33.9106 22.9851C36.1198 23.0147 37.9172 24.8386 37.9172 27.0513V29.6203C37.9172 31.7599 38.9916 33.2256 40.1169 34.1052C39.9458 34.4025 39.6686 34.6557 39.2207 34.6557V34.6557Z" fill="#3D3C3F"/>
</svg>
