<svg width="65" height="65" viewBox="0 0 65 65" fill="none" xmlns="http://www.w3.org/2000/svg">
<g clip-path="url(#clip0)">
<path d="M64.9757 32.4879C64.9757 50.4307 50.4307 64.9757 32.4879 64.9757C14.5451 64.9757 0 50.4307 0 32.4879C0 14.5451 14.5451 0 32.4879 0C50.4307 0 64.9757 14.5451 64.9757 32.4879Z" fill="url(#paint0_linear)"/>
<path d="M55.7751 31.9188C55.7751 30.2537 54.9799 28.7348 53.7634 27.7696C54.1853 27.0092 54.4178 26.1456 54.4178 25.2533C54.4178 23.2962 53.3306 21.5864 51.7245 20.6882C52.015 20.0492 52.1721 19.3537 52.1721 18.6398C52.1721 15.5237 49.9617 13.2622 46.9164 13.2622H29.282C28.2306 13.2622 27.3784 14.1144 27.3784 15.1658C27.3784 16.2167 28.2306 17.0694 29.282 17.0694H46.9164C48.1771 17.0694 48.365 18.0534 48.365 18.6398C48.365 19.3269 47.7775 19.7047 47.5981 19.8033C46.5412 20.3863 46.3835 21.229 46.3835 21.6791C46.3835 22.8823 47.4176 23.8246 48.7377 23.8246H49.1437C49.9528 23.8246 50.6111 24.4656 50.6111 25.2533C50.6111 25.7545 50.331 26.2269 49.8804 26.4867C49.8506 26.5035 49.8229 26.5184 49.7981 26.5318C48.7625 27.091 48.5454 27.8881 48.5454 28.4577C48.5454 29.1735 49.0193 30.4098 50.7965 30.5065C51.4315 30.5407 51.9679 31.1876 51.9679 31.9188C51.9679 32.5638 51.5118 33.1468 50.8832 33.3054C49.7545 33.5904 48.9955 34.4812 48.9955 35.5213C48.9955 36.0378 49.1844 36.7839 50.0841 37.408C50.4743 37.6787 50.7068 38.1184 50.7068 38.5839C50.7068 39.3721 50.0658 40.013 49.2776 40.013H37.4268C34.6353 40.013 31.546 41.9999 31.423 45.2097L31.422 45.2826C31.422 46.3876 32.2157 48.078 34.1644 51.958C34.4569 52.5405 34.7345 53.0933 34.9928 53.6172C35.0339 53.7655 35.0552 53.9196 35.0552 54.0763C35.0552 55.0132 34.2928 55.7756 33.3559 55.7756C32.936 55.7756 32.5409 55.6249 32.2301 55.3498L31.3293 54.0872L22.3255 40.0666C22.8589 39.2189 23.1692 38.2165 23.1692 37.1428V18.7682C23.1692 15.7324 20.699 13.2622 17.6627 13.2622H14.961C11.9247 13.2622 9.45447 15.7319 9.45447 18.7682V37.1428C9.45447 40.1791 11.9247 42.6493 14.961 42.6493H17.6632C18.2333 42.6493 18.783 42.5621 19.3006 42.4005L28.1517 56.1831L29.3197 57.825L29.4238 57.931C30.4683 58.9959 31.8647 59.5828 33.3559 59.5828C36.3922 59.5828 38.8624 57.1126 38.8624 54.0763C38.8624 53.4641 38.7623 52.8623 38.565 52.2872L38.5258 52.1732L38.4728 52.0656C38.1897 51.4891 37.8868 50.8863 37.5666 50.2488C36.7684 48.6605 35.4538 46.0431 35.2396 45.2301C35.3765 44.3531 36.5726 43.8202 37.4268 43.8202H49.2776C52.1647 43.8202 54.5139 41.471 54.5139 38.5839C54.5139 37.6638 54.27 36.774 53.8254 35.9952C55.03 35.0246 55.7751 33.5433 55.7751 31.9188V31.9188ZM14.961 38.8421C14.0241 38.8421 13.2616 38.0797 13.2616 37.1428V18.7682C13.2616 17.8313 14.0241 17.0694 14.961 17.0694H17.6632C18.6001 17.0694 19.3625 17.8313 19.3625 18.7682V37.1428C19.3625 38.0797 18.6001 38.8421 17.6632 38.8421H14.961Z" fill="white"/>
</g>
<defs>
<linearGradient id="paint0_linear" x1="0" y1="32.4879" x2="64.9757" y2="32.4879" gradientUnits="userSpaceOnUse">
<stop stop-color="#FF00D6"/>
<stop offset="1" stop-color="#93117E"/>
</linearGradient>
<clipPath id="clip0">
<rect width="64.9757" height="64.9757" fill="white"/>
</clipPath>
</defs>
</svg>
