<svg width="64" height="64" viewBox="0 0 64 64" fill="none" xmlns="http://www.w3.org/2000/svg">
<path d="M64 32C64 49.6733 49.6733 64 32 64C14.3267 64 0 49.6733 0 32C0 14.3267 14.3267 0 32 0C49.6733 0 64 14.3267 64 32Z" fill="url(#paint0_linear)"/>
<path d="M54.9375 31.4395C54.9375 29.7993 54.1543 28.3032 52.9561 27.3525C53.3716 26.6035 53.6006 25.7529 53.6006 24.874C53.6006 22.9463 52.5298 21.2622 50.9478 20.3774C51.2339 19.748 51.3887 19.063 51.3887 18.3599C51.3887 15.2905 49.2114 13.063 46.2119 13.063H28.8423C27.8066 13.063 26.9673 13.9023 26.9673 14.938C26.9673 15.9731 27.8066 16.813 28.8423 16.813H46.2119C47.4536 16.813 47.6387 17.7822 47.6387 18.3599C47.6387 19.0366 47.0601 19.4087 46.8833 19.5059C45.8423 20.0801 45.687 20.9102 45.687 21.3535C45.687 22.5386 46.7056 23.4668 48.0059 23.4668H48.4058C49.2026 23.4668 49.8511 24.0981 49.8511 24.874C49.8511 25.3677 49.5752 25.833 49.1313 26.0889C49.1021 26.1055 49.0747 26.1201 49.0503 26.1333C48.0303 26.6841 47.8164 27.4692 47.8164 28.0303C47.8164 28.7354 48.2832 29.9531 50.0337 30.0483C50.6592 30.082 51.1875 30.7192 51.1875 31.4395C51.1875 32.0747 50.7383 32.6489 50.1191 32.8052C49.0073 33.0859 48.2598 33.9634 48.2598 34.9878C48.2598 35.4966 48.4458 36.2314 49.332 36.8462C49.7163 37.1128 49.9453 37.5459 49.9453 38.0044C49.9453 38.7808 49.314 39.4121 48.5376 39.4121H36.8647C34.1152 39.4121 31.0723 41.3691 30.9512 44.5308L30.9502 44.6025C30.9502 45.6909 31.7319 47.356 33.6514 51.1777C33.9395 51.7515 34.2129 52.2959 34.4673 52.812C34.5078 52.958 34.5288 53.1099 34.5288 53.2642C34.5288 54.187 33.7778 54.938 32.855 54.938C32.4414 54.938 32.0522 54.7896 31.7461 54.5186L30.8589 53.2749L21.9902 39.4648C22.5156 38.6299 22.8213 37.6426 22.8213 36.585V18.4863C22.8213 15.4961 20.3882 13.063 17.3975 13.063H14.7363C11.7456 13.063 9.3125 15.4956 9.3125 18.4863V36.585C9.3125 39.5757 11.7456 42.0088 14.7363 42.0088H17.3979C17.9595 42.0088 18.501 41.9229 19.0107 41.7637L27.729 55.3394L28.8794 56.9565L28.9819 57.061C30.0107 58.1099 31.3862 58.688 32.855 58.688C35.8457 58.688 38.2788 56.2549 38.2788 53.2642C38.2788 52.6611 38.1802 52.0684 37.9858 51.502L37.9473 51.3896L37.895 51.2837C37.6162 50.7158 37.3179 50.1221 37.0024 49.4941C36.2163 47.9297 34.9214 45.3516 34.7104 44.5508C34.8452 43.687 36.0234 43.1621 36.8647 43.1621H48.5376C51.3813 43.1621 53.6953 40.8481 53.6953 38.0044C53.6953 37.0981 53.4551 36.2217 53.0171 35.4546C54.2036 34.4985 54.9375 33.0396 54.9375 31.4395V31.4395ZM14.7363 38.2588C13.8135 38.2588 13.0625 37.5078 13.0625 36.585V18.4863C13.0625 17.5635 13.8135 16.813 14.7363 16.813H17.3979C18.3208 16.813 19.0718 17.5635 19.0718 18.4863V36.585C19.0718 37.5078 18.3208 38.2588 17.3979 38.2588H14.7363Z" fill="white"/>
<defs>
<linearGradient id="paint0_linear" x1="0" y1="32" x2="64" y2="32" gradientUnits="userSpaceOnUse">
<stop stop-color="#FF00D6"/>
<stop offset="1" stop-color="#FF4D00"/>
</linearGradient>
</defs>
</svg>
