<svg width="150" height="150" viewBox="0 0 150 150" fill="none" xmlns="http://www.w3.org/2000/svg">
<path d="M150 75C150 116.422 116.422 150 75 150C33.5781 150 0 116.422 0 75C0 33.5781 33.5781 0 75 0C116.422 0 150 33.5781 150 75Z" fill="url(#paint0_linear)"/>
<path d="M119.561 30.4391C115.686 26.5652 110.535 24.4309 105.056 24.4309C99.5762 24.4309 94.4252 26.5652 90.5502 30.4391L34.5749 86.4155C34.0393 86.9511 33.6514 87.6149 33.4488 88.345L24.6552 119.932C24.2294 121.463 24.6632 123.105 25.7904 124.226C26.6258 125.057 27.7439 125.505 28.8895 125.505C29.29 125.505 29.694 125.45 30.09 125.338L61.6779 116.366C63.1748 115.94 64.3364 114.753 64.7289 113.247C65.1215 111.74 64.6877 110.138 63.5891 109.036L44.0163 89.4036L89.732 43.6867L106.303 60.2589L71.125 95.3396C69.4073 97.054 69.4027 99.836 71.117 101.555C72.8313 103.274 75.6134 103.277 77.3323 101.563L119.561 59.4498C123.436 55.5749 125.569 50.4239 125.569 44.9444C125.569 39.465 123.435 34.314 119.561 30.4391V30.4391ZM52.0912 109.951L35.2238 114.743L39.9479 97.7704L52.0912 109.951ZM113.35 53.23L112.526 54.0517L95.9461 37.4726L96.7655 36.6543C98.98 34.4399 101.923 33.22 105.056 33.22C108.188 33.22 111.131 34.4399 113.346 36.6543C115.56 38.8688 116.78 41.8122 116.78 44.9444C116.78 48.0755 115.56 51.0201 113.35 53.23Z" fill="white"/>
<defs>
<linearGradient id="paint0_linear" x1="0" y1="75" x2="150" y2="75" gradientUnits="userSpaceOnUse">
<stop stop-color="#FF00D6"/>
<stop offset="1" stop-color="#FF4D00"/>
</linearGradient>
</defs>
</svg>
