<svg width="80" height="80" viewBox="0 0 80 80" fill="none" xmlns="http://www.w3.org/2000/svg">
<path d="M66.6747 79.4225H12.7478C5.71868 79.4225 0 73.7038 0 66.6747V63.6102C0 61.646 1.59197 60.054 3.55623 60.054C5.52049 60.054 7.11246 61.646 7.11246 63.6102V66.6747C7.11246 69.7818 9.64072 72.31 12.7478 72.31H66.6747C69.7818 72.31 72.31 69.7818 72.31 66.6747V12.7478C72.31 9.64072 69.7818 7.11246 66.6747 7.11246H12.7478C9.64072 7.11246 7.11246 9.64072 7.11246 12.7478V15.8123C7.11246 17.7765 5.52049 19.3685 3.55623 19.3685C1.59197 19.3685 0 17.7765 0 15.8123V12.7478C0 5.71868 5.71868 0 12.7478 0H66.6747C73.7038 0 79.4225 5.71868 79.4225 12.7478V66.6747C79.4225 73.7038 73.7038 79.4225 66.6747 79.4225V79.4225Z" fill="white"/>
<path d="M16.7318 59.2001C15.8103 59.2001 14.8888 58.8445 14.1924 58.1351L2.82266 46.5449C-0.939164 42.7683 -0.934534 36.6347 2.83655 32.8636L14.21 21.4244C15.5945 20.0316 17.8459 20.0251 19.2387 21.4096C20.6316 22.7941 20.6381 25.0464 19.2536 26.4393L7.87362 37.885C6.86324 38.8953 6.86324 40.5271 7.86621 41.5301C7.87455 41.5375 7.88196 41.5458 7.89029 41.5542L19.2702 53.1536C20.6455 54.5557 20.6242 56.8071 19.2221 58.1823C18.5293 58.8612 17.6301 59.2001 16.7318 59.2001Z" fill="white"/>
<path d="M51.5079 43.2675H18.8758C16.9125 43.2675 15.3196 41.6755 15.3196 39.7113C15.3196 37.747 16.9125 36.155 18.8758 36.155H51.5079C53.4713 36.155 55.0642 37.747 55.0642 39.7113C55.0642 41.6755 53.4713 43.2675 51.5079 43.2675Z" fill="white"/>
</svg>
