<svg width="40" height="40" viewBox="0 0 40 40" fill="none" xmlns="http://www.w3.org/2000/svg">
<path d="M33.5798 40H6.42024C2.88013 40 0 37.1199 0 33.5798V32.0364C0 31.0471 0.801772 30.2453 1.79104 30.2453C2.78032 30.2453 3.58209 31.0471 3.58209 32.0364V33.5798C3.58209 35.1446 4.85541 36.4179 6.42024 36.4179H33.5798C35.1446 36.4179 36.4179 35.1446 36.4179 33.5798V6.42024C36.4179 4.85541 35.1446 3.58209 33.5798 3.58209H6.42024C4.85541 3.58209 3.58209 4.85541 3.58209 6.42024V7.96362C3.58209 8.95289 2.78032 9.75466 1.79104 9.75466C0.801772 9.75466 0 8.95289 0 7.96362V6.42024C0 2.88013 2.88013 0 6.42024 0H33.5798C37.1199 0 40 2.88013 40 6.42024V33.5798C40 37.1199 37.1199 40 33.5798 40V40Z" fill="#3D3C3F"/>
<path d="M8.42677 29.8152C7.96268 29.8152 7.4986 29.6361 7.14785 29.2788L1.42164 23.4416C-0.472953 21.5395 -0.470621 18.4505 1.42863 16.5512L7.15671 10.79C7.85401 10.0885 8.98787 10.0852 9.68936 10.7825C10.3909 11.4798 10.3941 12.6142 9.69682 13.3157L3.96548 19.0801C3.45662 19.589 3.45662 20.4108 3.96175 20.9159C3.96595 20.9197 3.96968 20.9239 3.97388 20.9281L9.70522 26.7699C10.3978 27.4761 10.3871 28.61 9.68097 29.3026C9.33208 29.6445 8.87919 29.8152 8.42677 29.8152Z" fill="#3D3C3F"/>
<path d="M25.9412 21.7911H9.5065C8.51769 21.7911 7.71545 20.9893 7.71545 20C7.71545 19.0108 8.51769 18.209 9.5065 18.209H25.9412C26.93 18.209 27.7322 19.0108 27.7322 20C27.7322 20.9893 26.93 21.7911 25.9412 21.7911Z" fill="#3D3C3F"/>
</svg>
