<svg width="42" height="40" viewBox="0 0 42 40" fill="none" xmlns="http://www.w3.org/2000/svg">
<path d="M41.5258 18.4098L24.4243 1.31443C24.4026 1.29247 24.3801 1.27135 24.3567 1.25066C22.4926 -0.411453 19.6755 -0.417788 17.8045 1.23715C17.7811 1.25742 17.7586 1.27853 17.7369 1.30049L0.479435 18.4047C-0.158818 19.0373 -0.160094 20.0643 0.477308 20.6982C1.11429 21.332 2.14799 21.3329 2.78624 20.7003L4.10315 19.395V33.4888C4.10315 37.0791 7.04481 40 10.66 40H16.5684C17.4703 40 18.2013 39.2741 18.2013 38.3784V25.0861H23.963V38.3784C23.963 39.2741 24.6939 40 25.5958 40H31.3401C34.9553 40 37.897 37.0791 37.897 33.4888C37.897 32.5931 37.1656 31.8672 36.2641 31.8672C35.3622 31.8672 34.6313 32.5931 34.6313 33.4888C34.6313 35.2907 33.1545 36.7568 31.3401 36.7568H27.2286V23.4646C27.2286 22.5689 26.4977 21.843 25.5958 21.843H16.5684C15.667 21.843 14.9356 22.5689 14.9356 23.4646V36.7568H10.66C8.84518 36.7568 7.36882 35.2907 7.36882 33.4888V16.211C7.36882 16.1941 7.36712 16.1776 7.3667 16.1607L20.005 3.63404C20.6229 3.11252 21.5299 3.11463 22.146 3.63869L34.6313 16.1193V25.3391C34.6313 26.2348 35.3622 26.9607 36.2641 26.9607C37.1656 26.9607 37.897 26.2348 37.897 25.3391V19.384L39.2088 20.6956C39.5281 21.0145 39.9474 21.1741 40.367 21.1741C40.7833 21.1741 41.1996 21.0174 41.5181 20.7032C42.1576 20.0719 42.161 19.0449 41.5258 18.4098V18.4098Z" fill="#3D3C3F"/>
</svg>
