<svg width="92" height="88" viewBox="0 0 92 88" fill="none" xmlns="http://www.w3.org/2000/svg">
<path d="M90.9612 40.5016L53.5009 2.89174C53.4534 2.84343 53.4041 2.79698 53.3528 2.75146C49.2694 -0.905197 43.0987 -0.919133 39.0004 2.72173C38.9492 2.76632 38.8998 2.81277 38.8523 2.86108L1.05019 40.4904C-0.347887 41.8821 -0.350682 44.1415 1.04553 45.536C2.44082 46.9305 4.70512 46.9323 6.1032 45.5406L8.98784 42.669V73.6753C8.98784 81.5739 15.4315 88 23.3505 88H36.2927C38.2683 88 39.8694 86.403 39.8694 84.4325V55.1895H52.4903V84.4325C52.4903 86.403 54.0914 88 56.067 88H68.6497C76.5687 88 83.0124 81.5739 83.0124 73.6753C83.0124 71.7048 81.4103 70.1078 79.4357 70.1078C77.4601 70.1078 75.859 71.7048 75.859 73.6753C75.859 77.6395 72.6241 80.8651 68.6497 80.8651H59.6437V51.6221C59.6437 49.6516 58.0426 48.0546 56.067 48.0546H36.2927C34.3181 48.0546 32.716 49.6516 32.716 51.6221V80.8651H23.3505C19.3752 80.8651 16.1412 77.6395 16.1412 73.6753V35.6641C16.1412 35.627 16.1375 35.5907 16.1366 35.5536L43.8206 7.99489C45.1739 6.84754 47.1607 6.85219 48.5103 8.00511L75.859 35.4625V55.746C75.859 57.7165 77.4601 59.3135 79.4357 59.3135C81.4103 59.3135 83.0124 57.7165 83.0124 55.746V42.6449L85.8858 45.5304C86.5853 46.2318 87.5037 46.583 88.4231 46.583C89.3349 46.583 90.2468 46.2383 90.9444 45.5471C92.3453 44.1582 92.3528 41.8988 90.9612 40.5016V40.5016Z" fill="white"/>
</svg>
