<svg width="82" height="75" viewBox="0 0 82 75" fill="none" xmlns="http://www.w3.org/2000/svg">
<path d="M68.8038 0H13.058C5.85759 0 0 5.85759 0 13.059V49.6418C0 56.8423 5.85759 62.6999 13.058 62.6999H34.9131C36.8764 62.6999 38.4693 61.1079 38.4693 59.1436C38.4693 57.1803 36.8764 55.5874 34.9131 55.5874H13.058C9.77964 55.5874 7.11246 52.9202 7.11246 49.6418V14.4296L34.0352 31.1707C36.1624 32.4932 38.5462 33.1544 40.9309 33.1544C43.3156 33.1544 45.6994 32.4932 47.8267 31.1707L74.7494 14.4296V32.8544C74.7494 34.8187 76.3423 36.4106 78.3056 36.4106C80.2699 36.4106 81.8618 34.8187 81.8618 32.8544V13.059C81.8618 5.85759 76.0043 0 68.8038 0ZM44.0704 25.1307C42.1339 26.3346 39.7279 26.3346 37.7914 25.1307L10.0936 7.90798C10.9669 7.40326 11.9791 7.11246 13.058 7.11246H68.8038C69.8827 7.11246 70.895 7.40326 71.7683 7.90798L44.0704 25.1307Z" fill="white"/>
<path d="M79.5318 58.0491C79.091 57.8667 77.2897 56.9859 77.2897 54.8207V50.0661C77.2897 43.3037 72.6212 37.5526 66.3423 35.9032V34.1214C66.3423 32.1581 64.7494 30.5652 62.786 30.5652C60.8218 30.5652 59.2298 32.1581 59.2298 34.1214V35.8643C52.8703 37.4582 48.124 43.2472 48.124 50.0661V54.8207C48.124 56.9859 46.3218 57.8657 45.881 58.0491C44.4251 58.5288 43.5509 59.8522 43.5509 61.3886C43.5509 66.2368 47.0201 71.2525 52.824 71.2525H59.6447C59.8373 72.8158 61.1709 74.0308 62.786 74.0308C64.4002 74.0308 65.7338 72.8158 65.9265 71.2525H72.5888C78.3936 71.2525 81.8619 66.2368 81.8619 61.3886C81.8619 59.8513 80.9886 58.5279 79.5318 58.0491ZM72.5888 64.1401H52.824C51.996 64.1401 51.483 63.6715 51.1662 63.1214C53.2481 61.4933 55.2365 58.7807 55.2365 54.8207V50.0661C55.2365 45.9709 58.563 42.5952 62.6518 42.5406C62.6703 42.5406 62.6879 42.5397 62.7064 42.5397C62.7249 42.5397 62.7434 42.5406 62.761 42.5406C66.8498 42.5952 70.1763 45.9709 70.1763 50.0661V54.8207C70.1763 58.7807 72.1647 61.4933 74.2475 63.1214C73.9307 63.6715 73.4177 64.1401 72.5888 64.1401Z" fill="white"/>
</svg>
