<svg width="84" height="84" viewBox="0 0 84 84" fill="none" xmlns="http://www.w3.org/2000/svg">
<path d="M83.7823 71.7018C83.3819 69.7775 81.4965 68.5429 79.5723 68.9424C77.648 69.3428 76.4124 71.2281 76.8138 73.1524C77.0057 74.0775 76.7767 75.0257 76.1844 75.7542C75.8424 76.175 75.0786 76.8814 73.8125 76.8814H10.1875C8.92139 76.8814 8.15854 76.175 7.81559 75.7542C7.22329 75.0266 6.99435 74.0775 7.18714 73.1524C10.5407 57.0418 24.7576 45.2766 41.1704 44.891C41.4457 44.9012 41.7219 44.9086 42 44.9086C42.2614 44.9086 42.5209 44.9021 42.7795 44.8929C54.3641 45.1459 65.0773 50.9984 71.5592 60.6651C72.6538 62.2974 74.8645 62.734 76.4977 61.6393C78.13 60.5446 78.5666 58.333 77.471 56.7007C72.1959 48.8322 64.5823 43.0715 55.8916 40.0832C61.1027 35.9677 64.4544 29.5952 64.4544 22.4543C64.4544 10.0727 54.3817 0 42 0C29.6184 0 19.5456 10.0727 19.5456 22.4543C19.5456 29.5989 22.901 35.9751 28.1168 40.0896C23.3358 41.7349 18.8486 44.2209 14.9046 47.465C7.40311 53.6355 2.18647 62.2427 0.21771 71.7018C-0.413515 74.7337 0.342843 77.8472 2.29213 80.246C4.23308 82.6319 7.11114 84 10.1875 84H73.8125C76.8889 84 79.7669 82.6319 81.707 80.246C83.6572 77.8481 84.4135 74.7337 83.7823 71.7018ZM26.6643 22.4543C26.6643 13.9981 33.5438 7.11864 42 7.11864C50.4562 7.11864 57.3357 13.9981 57.3357 22.4543C57.3357 30.688 50.8121 37.4239 42.6637 37.7733C42.4421 37.7696 42.2215 37.7631 42 37.7631C41.7507 37.7631 41.5013 37.7668 41.2529 37.7705C33.1425 37.3794 26.6643 30.6593 26.6643 22.4543Z" fill="white"/>
</svg>
