<svg width="64" height="64" viewBox="0 0 64 64" fill="none" xmlns="http://www.w3.org/2000/svg">
<path d="M64 32C64 49.6733 49.6733 64 32 64C14.3267 64 0 49.6733 0 32C0 14.3267 14.3267 0 32 0C49.6733 0 64 14.3267 64 32Z" fill="url(#paint0_linear)"/>
<path d="M48.7637 23.8662H46.1021C45.5405 23.8662 44.999 23.9521 44.4893 24.1113L35.771 10.5356L34.6201 8.91895L34.5181 8.81445C33.4893 7.76514 32.1138 7.1875 30.645 7.1875C27.6543 7.1875 25.2212 9.62061 25.2212 12.6113C25.2212 13.2139 25.3198 13.8066 25.5142 14.3735L25.5527 14.4854L25.605 14.5913C25.8838 15.1592 26.1821 15.7529 26.4976 16.3813C27.2837 17.9458 28.5786 20.5239 28.7896 21.3242C28.6548 22.188 27.4766 22.7134 26.6353 22.7134H14.9624C12.1182 22.7134 9.80469 25.0269 9.80469 27.8711C9.80469 28.7773 10.0444 29.6538 10.4829 30.4209C9.29688 31.3765 8.56299 32.8354 8.56299 34.436C8.56299 36.0762 9.3457 37.5723 10.5444 38.5225C10.1289 39.272 9.89941 40.1226 9.89941 41.001C9.89941 42.9287 10.9702 44.6128 12.5527 45.498C12.2666 46.1274 12.1118 46.8125 12.1118 47.5156C12.1118 50.585 14.2886 52.8125 17.2881 52.8125H34.6582C35.6934 52.8125 36.5332 51.9731 36.5332 50.9375C36.5332 49.9023 35.6934 49.0625 34.6582 49.0625H17.2876C16.0464 49.0625 15.8613 48.0933 15.8613 47.5156C15.8613 46.8389 16.4399 46.4668 16.6172 46.3691C17.6577 45.7949 17.813 44.9653 17.813 44.5215C17.813 43.3369 16.7944 42.4087 15.4941 42.4087H15.0942C14.2974 42.4087 13.6489 41.7773 13.6489 41.001C13.6489 40.5078 13.9248 40.0425 14.3682 39.7871C14.3975 39.77 14.4248 39.7559 14.4492 39.7427C15.4697 39.1914 15.6836 38.4067 15.6836 37.8452C15.6836 37.1401 15.2168 35.9224 13.4663 35.8271C12.8408 35.7935 12.3125 35.1563 12.3125 34.436C12.3125 33.8008 12.7617 33.2266 13.3804 33.0703C14.4927 32.7896 15.2402 31.9121 15.2402 30.8872C15.2402 30.3789 15.0542 29.644 14.168 29.0293C13.7837 28.7627 13.5547 28.3296 13.5547 27.8711C13.5547 27.0947 14.186 26.4634 14.9619 26.4634H26.6353C29.3848 26.4634 32.4277 24.5063 32.5488 21.3447L32.5498 21.2729C32.5498 20.1846 31.7681 18.5195 29.8486 14.6982C29.5605 14.124 29.2871 13.5796 29.0327 13.0635C28.9917 12.9175 28.9712 12.7661 28.9712 12.6113C28.9712 11.6885 29.7222 10.9375 30.645 10.9375C31.0586 10.9375 31.4478 11.0859 31.7534 11.3574L32.6411 12.6006L41.5098 26.4106C40.9844 27.2456 40.6787 28.2329 40.6787 29.29V47.3887C40.6787 50.3794 43.1118 52.8125 46.1025 52.8125H48.7642C51.7549 52.8125 54.188 50.3794 54.188 47.3887V29.29C54.1875 26.2993 51.7544 23.8662 48.7637 23.8662ZM50.4375 47.3887C50.4375 48.3115 49.6865 49.0625 48.7637 49.0625H46.1021C45.1792 49.0625 44.4282 48.3115 44.4282 47.3887V29.29C44.4282 28.3672 45.1792 27.6162 46.1021 27.6162H48.7637C49.6865 27.6162 50.4375 28.3672 50.4375 29.29V47.3887Z" fill="white"/>
<defs>
<linearGradient id="paint0_linear" x1="0" y1="32" x2="64" y2="32" gradientUnits="userSpaceOnUse">
<stop stop-color="#FF0FD8"/>
<stop offset="1" stop-color="#FF4D00"/>
</linearGradient>
</defs>
</svg>
