<svg width="65" height="66" viewBox="0 0 65 66" fill="none" xmlns="http://www.w3.org/2000/svg">
<g clip-path="url(#clip0)">
<path d="M64.9757 32.8082C64.9757 50.751 50.4307 65.2961 32.4879 65.2961C14.5451 65.2961 0 50.751 0 32.8082C0 14.8654 14.5451 0.320312 32.4879 0.320312C50.4307 0.320312 64.9757 14.8654 64.9757 32.8082Z" fill="url(#paint0_linear)"/>
<path d="M49.5072 24.5502H46.805C46.2349 24.5502 45.6851 24.6374 45.1676 24.799L36.3164 11.0164L35.148 9.37503L35.0444 9.26895C33.9999 8.20363 32.6034 7.61719 31.1123 7.61719C28.076 7.61719 25.6058 10.0874 25.6058 13.1237C25.6058 13.7354 25.7059 14.3372 25.9032 14.9128L25.9424 15.0263L25.9954 15.1339C26.2785 15.7104 26.5814 16.3132 26.9016 16.9512C27.6997 18.5395 29.0144 21.1569 29.2285 21.9694C29.0917 22.8464 27.8955 23.3798 27.0414 23.3798H15.1906C12.303 23.3798 9.95423 25.7285 9.95423 28.6161C9.95423 29.5362 10.1976 30.426 10.6428 31.2048C9.43868 32.1749 8.6936 33.6562 8.6936 35.2812C8.6936 36.9463 9.48825 38.4652 10.7053 39.4299C10.2834 40.1908 10.0504 41.0544 10.0504 41.9462C10.0504 43.9033 11.1375 45.6131 12.7442 46.5118C12.4537 47.1508 12.2965 47.8463 12.2965 48.5602C12.2965 51.6763 14.5065 53.9378 17.5517 53.9378H35.1867C36.2376 53.9378 37.0902 53.0856 37.0902 52.0342C37.0902 50.9833 36.2376 50.1306 35.1867 50.1306H17.5512C16.2911 50.1306 16.1032 49.1466 16.1032 48.5602C16.1032 47.8731 16.6906 47.4953 16.8706 47.3962C17.927 46.8132 18.0846 45.971 18.0846 45.5204C18.0846 44.3177 17.0505 43.3754 15.7304 43.3754H15.3244C14.5154 43.3754 13.8571 42.7344 13.8571 41.9462C13.8571 41.4455 14.1372 40.9731 14.5873 40.7138C14.617 40.6965 14.6448 40.6821 14.6696 40.6687C15.7056 40.109 15.9228 39.3124 15.9228 38.7423C15.9228 38.0265 15.4489 36.7901 13.6717 36.6935C13.0367 36.6593 12.5003 36.0123 12.5003 35.2812C12.5003 34.6362 12.9563 34.0532 13.5844 33.8946C14.7137 33.6096 15.4727 32.7187 15.4727 31.6782C15.4727 31.1622 15.2838 30.4161 14.384 29.792C13.9939 29.5213 13.7614 29.0816 13.7614 28.6161C13.7614 27.8279 14.4024 27.1869 15.1901 27.1869H27.0414C29.8328 27.1869 32.9222 25.2001 33.0451 21.9903L33.0461 21.9174C33.0461 20.8124 32.2525 19.122 30.3038 15.2424C30.0113 14.6595 29.7337 14.1067 29.4754 13.5827C29.4338 13.4345 29.4129 13.2809 29.4129 13.1237C29.4129 12.1868 30.1754 11.4244 31.1123 11.4244C31.5322 11.4244 31.9273 11.5751 32.2376 11.8507L33.1388 13.1128L42.1427 27.1334C41.6093 27.9811 41.299 28.9835 41.299 30.0567V48.4313C41.299 51.4676 43.7692 53.9378 46.8055 53.9378H49.5077C52.544 53.9378 55.0142 51.4676 55.0142 48.4313V30.0567C55.0137 27.0204 52.5435 24.5502 49.5072 24.5502ZM51.2065 48.4313C51.2065 49.3682 50.4441 50.1306 49.5072 50.1306H46.805C45.8681 50.1306 45.1056 49.3682 45.1056 48.4313V30.0567C45.1056 29.1198 45.8681 28.3574 46.805 28.3574H49.5072C50.4441 28.3574 51.2065 29.1198 51.2065 30.0567V48.4313Z" fill="white"/>
</g>
<defs>
<linearGradient id="paint0_linear" x1="0" y1="32.8082" x2="64.9757" y2="32.8082" gradientUnits="userSpaceOnUse">
<stop stop-color="#FF0FD8"/>
<stop offset="1" stop-color="#93117E"/>
</linearGradient>
<clipPath id="clip0">
<rect width="64.9757" height="64.9757" fill="white" transform="translate(0 0.320312)"/>
</clipPath>
</defs>
</svg>
