<svg width="82" height="82" viewBox="0 0 82 82" fill="none" xmlns="http://www.w3.org/2000/svg">
<path d="M12.131 24.2611H69.869C76.5584 24.2611 82 18.8195 82 12.131C82 5.4416 76.5584 0 69.869 0H12.131C5.4416 0 -2.04146e-06 5.4416 -2.04146e-06 12.131C-2.04146e-06 18.8195 5.4416 24.2611 12.131 24.2611ZM69.869 7.13043C72.6264 7.13043 74.8696 9.37355 74.8696 12.131C74.8696 14.8876 72.6264 17.1307 69.869 17.1307H12.131C9.37355 17.1307 7.13043 14.8876 7.13043 12.131C7.13043 9.37355 9.37355 7.13043 12.131 7.13043H69.869Z" fill="#B260A4"/>
<path d="M12.131 53.1314H69.869C76.5584 53.1314 82 47.6889 82 41.0004C82 34.3119 76.5584 28.8694 69.869 28.8694H12.131C5.4416 28.8694 -2.04146e-06 34.3119 -2.04146e-06 41.0004C-2.04146e-06 47.6889 5.4416 53.1314 12.131 53.1314ZM69.869 35.9998C72.6264 35.9998 74.8696 38.2429 74.8696 41.0004C74.8696 43.7579 72.6264 46.001 69.869 46.001H12.131C9.37355 46.001 7.13043 43.7579 7.13043 41.0004C7.13043 38.2429 9.37355 35.9998 12.131 35.9998H69.869Z" fill="#B260A4"/>
<path d="M12.131 81.9999C14.0993 81.9999 15.6962 80.4039 15.6962 78.4347C15.6962 76.4654 14.0993 74.8695 12.131 74.8695C9.37355 74.8695 7.13043 72.6263 7.13043 69.8689C7.13043 67.1123 9.37355 64.8692 12.131 64.8692H69.869C72.6264 64.8692 74.8696 67.1123 74.8696 69.8689C74.8696 72.6263 72.6264 74.8695 69.869 74.8695H27.9925C26.0242 74.8695 24.4273 76.4654 24.4273 78.4347C24.4273 80.4039 26.0242 81.9999 27.9925 81.9999H69.869C76.5584 81.9999 82 76.5583 82 69.8689C82 63.1804 76.5584 57.7388 69.869 57.7388H12.131C5.4416 57.7388 -2.04146e-06 63.1804 -2.04146e-06 69.8689C-2.04146e-06 76.5583 5.4416 81.9999 12.131 81.9999V81.9999Z" fill="#B260A4"/>
</svg>
