<svg width="32" height="32" viewBox="0 0 32 32" fill="none" xmlns="http://www.w3.org/2000/svg">
<path d="M4.73406 9.46775H27.2659C29.8764 9.46775 32 7.3442 32 4.73406C32 2.12355 29.8764 0 27.2659 0H4.73406C2.12355 0 0 2.12355 0 4.73406C0 7.3442 2.12355 9.46775 4.73406 9.46775ZM27.2659 2.78261C28.342 2.78261 29.2174 3.65797 29.2174 4.73406C29.2174 5.80978 28.342 6.68514 27.2659 6.68514H4.73406C3.65797 6.68514 2.78261 5.80978 2.78261 4.73406C2.78261 3.65797 3.65797 2.78261 4.73406 2.78261H27.2659Z" fill="#B260A4"/>
<path d="M4.73406 20.7342H27.2659C29.8764 20.7342 32 18.6103 32 16.0002C32 13.39 29.8764 11.2661 27.2659 11.2661H4.73406C2.12355 11.2661 0 13.39 0 16.0002C0 18.6103 2.12355 20.7342 4.73406 20.7342ZM27.2659 14.0487C28.342 14.0487 29.2174 14.9241 29.2174 16.0002C29.2174 17.0763 28.342 17.9516 27.2659 17.9516H4.73406C3.65797 17.9516 2.78261 17.0763 2.78261 16.0002C2.78261 14.9241 3.65797 14.0487 4.73406 14.0487H27.2659Z" fill="#B260A4"/>
<path d="M4.73406 32C5.50217 32 6.12536 31.3772 6.12536 30.6087C6.12536 29.8402 5.50217 29.2174 4.73406 29.2174C3.65797 29.2174 2.78261 28.342 2.78261 27.2659C2.78261 26.1902 3.65797 25.3148 4.73406 25.3148H27.2659C28.342 25.3148 29.2174 26.1902 29.2174 27.2659C29.2174 28.342 28.342 29.2174 27.2659 29.2174H10.9239C10.1558 29.2174 9.53261 29.8402 9.53261 30.6087C9.53261 31.3772 10.1558 32 10.9239 32H27.2659C29.8764 32 32 29.8764 32 27.2659C32 24.6558 29.8764 22.5322 27.2659 22.5322H4.73406C2.12355 22.5322 0 24.6558 0 27.2659C0 29.8764 2.12355 32 4.73406 32Z" fill="#B260A4"/>
</svg>
