<svg width="92" height="92" viewBox="0 0 92 92" fill="none" xmlns="http://www.w3.org/2000/svg">
<g filter="url(#filter0_d)">
<path d="M16.4269 24.8529H75.5731C82.4257 24.8529 88 19.2785 88 12.4269C88 5.57432 82.4257 0 75.5731 0H16.4269C9.57432 0 4 5.57432 4 12.4269C4 19.2785 9.57432 24.8529 16.4269 24.8529ZM75.5731 7.30435C78.3978 7.30435 80.6957 9.60217 80.6957 12.4269C80.6957 15.2507 78.3978 17.5485 75.5731 17.5485H16.4269C13.6022 17.5485 11.3044 15.2507 11.3044 12.4269C11.3044 9.60217 13.6022 7.30435 16.4269 7.30435H75.5731Z" fill="white"/>
<path d="M16.4269 54.4273H75.5731C82.4257 54.4273 88 48.852 88 42.0004C88 35.1488 82.4257 29.5735 75.5731 29.5735H16.4269C9.57432 29.5735 4 35.1488 4 42.0004C4 48.852 9.57432 54.4273 16.4269 54.4273ZM75.5731 36.8778C78.3978 36.8778 80.6957 39.1757 80.6957 42.0004C80.6957 44.8251 78.3978 47.1229 75.5731 47.1229H16.4269C13.6022 47.1229 11.3044 44.8251 11.3044 42.0004C11.3044 39.1757 13.6022 36.8778 16.4269 36.8778H75.5731Z" fill="white"/>
<path d="M16.4269 83.9998C18.4432 83.9998 20.0791 82.3649 20.0791 80.3477C20.0791 78.3304 18.4432 76.6955 16.4269 76.6955C13.6022 76.6955 11.3044 74.3977 11.3044 71.5729C11.3044 68.7491 13.6022 66.4513 16.4269 66.4513H75.5731C78.3978 66.4513 80.6957 68.7491 80.6957 71.5729C80.6957 74.3977 78.3978 76.6955 75.5731 76.6955H32.6753C30.659 76.6955 29.0231 78.3304 29.0231 80.3477C29.0231 82.3649 30.659 83.9998 32.6753 83.9998H75.5731C82.4257 83.9998 88 78.4255 88 71.5729C88 64.7213 82.4257 59.147 75.5731 59.147H16.4269C9.57432 59.147 4 64.7213 4 71.5729C4 78.4255 9.57432 83.9998 16.4269 83.9998V83.9998Z" fill="white"/>
</g>
<defs>
<filter id="filter0_d" x="0" y="0" width="92" height="92" filterUnits="userSpaceOnUse" color-interpolation-filters="sRGB">
<feFlood flood-opacity="0" result="BackgroundImageFix"/>
<feColorMatrix in="SourceAlpha" type="matrix" values="0 0 0 0 0 0 0 0 0 0 0 0 0 0 0 0 0 0 127 0"/>
<feOffset dy="4"/>
<feGaussianBlur stdDeviation="2"/>
<feColorMatrix type="matrix" values="0 0 0 0 0 0 0 0 0 0 0 0 0 0 0 0 0 0 0.25 0"/>
<feBlend mode="normal" in2="BackgroundImageFix" result="effect1_dropShadow"/>
<feBlend mode="normal" in="SourceGraphic" in2="effect1_dropShadow" result="shape"/>
</filter>
</defs>
</svg>
