<svg width="62" height="62" viewBox="0 0 62 62" fill="none" xmlns="http://www.w3.org/2000/svg">
<path d="M62 31C62 48.121 48.121 62 31 62C13.879 62 0 48.121 0 31C0 13.879 13.879 0 31 0C48.121 0 62 13.879 62 31Z" fill="url(#paint0_linear)"/>
<path d="M45.2366 12.0938H16.7635C13.0857 12.0938 10.0939 15.0856 10.0939 18.7638V37.4492C10.0939 41.1269 13.0857 44.1188 16.7635 44.1188H27.9263C28.9292 44.1188 29.7428 43.3057 29.7428 42.3024C29.7428 41.2996 28.9292 40.486 27.9263 40.486H16.7635C15.089 40.486 13.7267 39.1237 13.7267 37.4492V19.4639L27.4779 28.0147C28.5645 28.6902 29.782 29.028 31 29.028C32.2181 29.028 33.4356 28.6902 34.5222 28.0147L48.2734 19.4639V28.8747C48.2734 29.878 49.087 30.6911 50.0898 30.6911C51.0931 30.6911 51.9062 29.878 51.9062 28.8747V18.7638C51.9062 15.0856 48.9144 12.0938 45.2366 12.0938V12.0938ZM32.6036 24.9297C31.6145 25.5446 30.3856 25.5446 29.3965 24.9297L15.2493 16.1329C15.6954 15.8751 16.2124 15.7266 16.7635 15.7266H45.2366C45.7877 15.7266 46.3047 15.8751 46.7507 16.1329L32.6036 24.9297Z" fill="white"/>
<path d="M50.7161 41.7432C50.491 41.65 49.5709 41.2002 49.5709 40.0943V37.6658C49.5709 34.2117 47.1864 31.2743 43.9793 30.4318V29.5217C43.9793 28.5189 43.1657 27.7053 42.1629 27.7053C41.1597 27.7053 40.3465 28.5189 40.3465 29.5217V30.412C37.0983 31.226 34.674 34.1829 34.674 37.6658V40.0943C34.674 41.2002 33.7535 41.6496 33.5284 41.7432C32.7848 41.9882 32.3383 42.6642 32.3383 43.4489C32.3383 45.9252 34.1102 48.4871 37.0746 48.4871H40.5584C40.6568 49.2856 41.338 49.9062 42.1629 49.9062C42.9874 49.9062 43.6686 49.2856 43.767 48.4871H47.1699C50.1348 48.4871 51.9062 45.9252 51.9062 43.4489C51.9062 42.6637 51.4602 41.9878 50.7161 41.7432V41.7432ZM47.1699 44.8543H37.0746C36.6517 44.8543 36.3897 44.6149 36.2279 44.334C37.2913 43.5024 38.3069 42.1169 38.3069 40.0943V37.6658C38.3069 35.5741 40.006 33.8499 42.0943 33.822C42.1038 33.822 42.1128 33.8215 42.1223 33.8215C42.1317 33.8215 42.1412 33.822 42.1502 33.822C44.2386 33.8499 45.9377 35.5741 45.9377 37.6658V40.0943C45.9377 42.1169 46.9532 43.5024 48.0171 44.334C47.8553 44.6149 47.5932 44.8543 47.1699 44.8543V44.8543Z" fill="white"/>
<defs>
<linearGradient id="paint0_linear" x1="0" y1="31" x2="62" y2="31" gradientUnits="userSpaceOnUse">
<stop stop-color="#FF00D6"/>
<stop offset="1" stop-color="#FF4D00"/>
</linearGradient>
</defs>
</svg>
