<svg width="150" height="150" viewBox="0 0 150 150" fill="none" xmlns="http://www.w3.org/2000/svg">
<path d="M150 75C150 116.422 116.422 150 75 150C33.5781 150 0 116.422 0 75C0 33.5781 33.5781 0 75 0C116.422 0 150 33.5781 150 75Z" fill="url(#paint0_linear)"/>
<path d="M106.278 77.7328C99.7616 74.8363 93.607 72.1 91.7691 67.8107C89.1587 61.7202 86.6673 55.9215 79.5479 54.3548C79.9347 51.9469 81.3389 49.7417 83.4744 48.2837C87.7568 45.3609 90.1955 40.52 89.9987 35.337C89.7034 27.5687 83.3874 21.2539 75.6192 20.9586C71.5107 20.803 67.6175 22.285 64.6592 25.1323C61.7009 27.9807 60.0724 31.8099 60.0724 35.9161C60.0724 38.3434 62.0396 40.3106 64.4669 40.3106C66.8931 40.3106 68.8614 38.3434 68.8614 35.9161C68.8614 34.2212 69.5332 32.6396 70.7554 31.4632C71.9765 30.289 73.5844 29.6756 75.2861 29.7408C78.4893 29.8633 81.094 32.468 81.2153 35.6712C81.2966 37.8146 80.2884 39.8162 78.518 41.0258C73.9689 44.1318 71.1136 49.0447 70.7005 54.3628C63.39 55.9764 60.8128 61.9777 58.3123 67.8119C56.4377 72.1858 50.219 75.0617 43.6341 78.107C33.4317 82.8254 20.7356 88.6974 20.7356 103.592C20.7356 106.018 22.7028 107.986 25.1301 107.986H41.2491V124.951C41.2491 127.378 43.2175 129.346 45.6437 129.346H104.86C107.286 129.346 109.255 127.378 109.255 124.951V99.361C109.255 97.2667 107.776 95.4631 105.722 95.0523C105.272 94.9619 94.5019 92.8516 75.4635 92.8516C56.4412 92.8516 45.2797 94.9561 44.814 95.0454C42.7998 95.4333 41.3327 97.1603 41.2571 99.1962H30.2205C32.2037 93.489 38.3286 90.2435 47.3237 86.0835C55.1228 82.4763 63.1875 78.7467 66.3907 71.2726C69.5733 63.8454 70.6776 62.7273 74.8284 62.7273H75.4635C79.5159 62.7273 80.4383 63.6863 83.6907 71.2726C86.8859 78.7296 94.9288 82.3058 102.707 85.7642C113.944 90.7596 120.768 94.4526 120.768 103.591C120.768 106.018 122.736 107.985 125.163 107.985C127.589 107.985 129.557 106.018 129.557 103.591C129.557 88.0828 116.65 82.3436 106.278 77.7328ZM50.0393 103.138C54.6147 102.533 63.4209 101.642 75.4635 101.642C87.4157 101.642 95.9954 102.521 100.465 103.121V120.557H50.0393V103.138Z" fill="white"/>
<defs>
<linearGradient id="paint0_linear" x1="0" y1="75" x2="150" y2="75" gradientUnits="userSpaceOnUse">
<stop stop-color="#FF00D6"/>
<stop offset="1" stop-color="#FF4D00"/>
</linearGradient>
</defs>
</svg>
