<svg width="41" height="40" viewBox="0 0 41 40" fill="none" xmlns="http://www.w3.org/2000/svg">
<path d="M24.0948 0C14.8235 0 7.28046 7.375 7.28046 16.4407C7.28046 20.3659 8.69551 23.9742 11.0522 26.8043L0.525269 37.0272C-0.171834 37.7038 -0.17554 38.8048 0.516932 39.4864C0.864325 39.8288 1.3215 40 1.77867 40C2.23167 40 2.68513 39.832 3.03206 39.495L13.5752 29.2563C16.4577 31.5226 20.1169 32.8813 24.0948 32.8813C26.9795 32.8813 29.8258 32.1549 32.3262 30.7799C33.1826 30.3089 33.486 29.2486 33.0047 28.4112C32.523 27.5743 31.4387 27.2772 30.5822 27.7477C28.6132 28.8306 26.37 29.4031 24.0948 29.4031C16.7851 29.4031 10.8378 23.5883 10.8378 16.4407C10.8378 9.29303 16.7851 3.47826 24.0948 3.47826C31.4049 3.47826 37.3518 9.29303 37.3518 16.4407C37.3518 18.6925 36.7529 20.9094 35.6194 22.8524C35.1326 23.6866 35.43 24.7486 36.2832 25.2246C37.1364 25.7006 38.2226 25.4099 38.7094 24.5756C40.1485 22.1087 40.9091 19.2957 40.9091 16.4407C40.9091 7.375 33.3665 0 24.0948 0V0Z" fill="#3D3C3F"/>
</svg>
