<svg width="82" height="82" viewBox="0 0 82 82" fill="none" xmlns="http://www.w3.org/2000/svg">
<path d="M48.2966 0C29.7129 0 14.5933 15.1188 14.5933 33.7034C14.5933 41.7502 17.4297 49.1471 22.1536 54.9489L1.05287 75.9057C-0.344432 77.2928 -0.35186 79.5498 1.03616 80.9471C1.73249 81.6491 2.64886 82 3.56524 82C4.47325 82 5.3822 81.6556 6.0776 80.9648L27.2108 59.9755C32.9885 64.6214 40.3232 67.4067 48.2966 67.4067C54.079 67.4067 59.7842 65.9175 64.796 63.0988C66.5127 62.1332 67.1208 59.9597 66.1561 58.243C65.1906 56.5273 63.0171 55.9182 61.3004 56.8829C57.3536 59.1028 52.8571 60.2763 48.2966 60.2763C33.6449 60.2763 21.7237 48.356 21.7237 33.7034C21.7237 19.0507 33.6449 7.13043 48.2966 7.13043C62.9493 7.13043 74.8696 19.0507 74.8696 33.7034C74.8696 38.3196 73.6691 42.8643 71.3972 46.8473C70.4214 48.5575 71.0175 50.7347 72.7277 51.7105C74.4378 52.6863 76.615 52.0902 77.5908 50.3801C80.4755 45.3228 82 39.5563 82 33.7034C82 15.1188 66.8812 0 48.2966 0V0Z" fill="white"/>
</svg>
