<svg width="65" height="65" viewBox="0 0 65 65" fill="none" xmlns="http://www.w3.org/2000/svg">
<g clip-path="url(#clip0)">
<path d="M64.9757 32.4879C64.9757 50.4307 50.4307 64.9757 32.4879 64.9757C14.5451 64.9757 0 50.4307 0 32.4879C0 14.5451 14.5451 0 32.4879 0C50.4307 0 64.9757 14.5451 64.9757 32.4879Z" fill="url(#paint0_linear)"/>
<path d="M32.4878 56.7995C31.9118 56.7995 31.366 56.5383 31.0046 56.0896C28.9137 53.491 25.5973 51.0174 22.086 48.399C15.0651 43.1621 7.10669 37.2263 7.10669 28.2963C7.10669 24.094 8.4853 20.4762 11.0943 17.8345C13.5804 15.3172 17.0088 13.9307 20.7491 13.9307C27.2877 13.9307 30.6675 17.2932 32.3515 20.1138C32.3981 20.1917 32.4432 20.2695 32.4878 20.3473C32.5325 20.2695 32.5776 20.1917 32.6242 20.1138C34.3081 17.2932 37.6875 13.9307 44.2266 13.9307C47.9669 13.9307 51.3953 15.3172 53.8814 17.8345C56.4904 20.4762 57.869 24.094 57.869 28.2963C57.869 35.7366 52.4507 41.0047 46.5952 45.5892C45.7678 46.2371 44.5711 46.0919 43.9232 45.264C43.2748 44.4361 43.4206 43.2399 44.2484 42.5915C49.3455 38.6009 54.0618 34.1072 54.0618 28.2963C54.0618 22.0794 50.0177 17.7378 44.2266 17.7378C40.411 17.7378 37.6072 19.1938 35.8935 22.065C34.5902 24.2482 34.3875 26.4691 34.386 26.4909C34.3091 27.4828 33.4828 28.2482 32.4878 28.2482C31.4929 28.2482 30.666 27.4828 30.5897 26.4909C30.5887 26.476 30.3775 24.1728 29.0168 21.957C27.2976 19.1571 24.5156 17.7373 20.7491 17.7373C14.958 17.7373 10.9139 22.0794 10.9139 28.2963C10.9139 35.3163 17.7504 40.4158 24.3624 45.3468C27.366 47.587 30.2348 49.727 32.4888 52.0391C33.517 50.9861 34.7617 49.8782 36.2905 48.6503C37.1105 47.992 38.3086 48.1228 38.967 48.9423C39.6253 49.7617 39.4944 50.9599 38.6745 51.6182C36.5419 53.3314 35.0468 54.7522 33.971 56.0896C33.6097 56.5383 33.0639 56.7995 32.4878 56.7995V56.7995Z" fill="white"/>
</g>
<defs>
<linearGradient id="paint0_linear" x1="0" y1="32.4879" x2="64.9757" y2="32.4879" gradientUnits="userSpaceOnUse">
<stop stop-color="#FF00D6"/>
<stop offset="1" stop-color="#93117E"/>
</linearGradient>
<clipPath id="clip0">
<rect width="64.9757" height="64.9757" fill="white"/>
</clipPath>
</defs>
</svg>
