<svg width="64" height="64" viewBox="0 0 64 64" fill="none" xmlns="http://www.w3.org/2000/svg">
<path d="M64 32C64 49.6733 49.6733 64 32 64C14.3267 64 0 49.6733 0 32C0 14.3267 14.3267 0 32 0C49.6733 0 64 14.3267 64 32Z" fill="url(#paint0_linear)"/>
<path d="M32 55.9468C31.4326 55.9468 30.895 55.6895 30.5391 55.2476C28.4795 52.688 25.2129 50.2515 21.7544 47.6724C14.8389 42.5142 7 36.6675 7 27.8716C7 23.7324 8.35791 20.1689 10.9277 17.5669C13.3765 15.0874 16.7534 13.7217 20.4375 13.7217C26.8779 13.7217 30.207 17.0337 31.8657 19.812C31.9116 19.8887 31.9561 19.9653 32 20.042C32.0439 19.9653 32.0884 19.8887 32.1343 19.812C33.793 17.0337 37.1216 13.7217 43.5625 13.7217C47.2466 13.7217 50.6235 15.0874 53.0723 17.5669C55.6421 20.1689 57 23.7324 57 27.8716C57 35.2002 51.6631 40.3892 45.8955 44.9048C45.0806 45.543 43.9019 45.3999 43.2637 44.5845C42.625 43.769 42.7686 42.5908 43.584 41.9521C48.6045 38.0215 53.25 33.5952 53.25 27.8716C53.25 21.748 49.2666 17.4717 43.5625 17.4717C39.8042 17.4717 37.0425 18.9058 35.3545 21.7339C34.0708 23.8843 33.8711 26.0718 33.8696 26.0933C33.7939 27.0703 32.98 27.8242 32 27.8242C31.02 27.8242 30.2056 27.0703 30.1304 26.0933C30.1294 26.0786 29.9214 23.8101 28.5811 21.6274C26.8877 18.8696 24.1475 17.4712 20.4375 17.4712C14.7334 17.4712 10.75 21.748 10.75 27.8716C10.75 34.7861 17.4839 39.8091 23.9966 44.666C26.9551 46.8726 29.7808 48.9805 32.001 51.2578C33.0137 50.2207 34.2397 49.1294 35.7456 47.9199C36.5532 47.2715 37.7334 47.4004 38.3818 48.2075C39.0303 49.0146 38.9014 50.1948 38.0938 50.8433C35.9932 52.5308 34.5205 53.9302 33.4609 55.2476C33.105 55.6895 32.5674 55.9468 32 55.9468V55.9468Z" fill="white"/>
<defs>
<linearGradient id="paint0_linear" x1="0" y1="32" x2="64" y2="32" gradientUnits="userSpaceOnUse">
<stop stop-color="#FF00D6"/>
<stop offset="1" stop-color="#FF4D00"/>
</linearGradient>
</defs>
</svg>
