<svg width="50" height="50" viewBox="0 0 50 50" fill="none" xmlns="http://www.w3.org/2000/svg">
<path d="M41 25C41 33.8367 33.8367 41 25 41C16.1633 41 9 33.8367 9 25C9 16.1633 16.1633 9 25 9C33.8367 9 41 16.1633 41 25Z" fill="url(#paint0_linear)"/>
<path d="M24.125 21.52V32.4334C24.125 32.9509 24.5447 33.3709 25.0625 33.3709C25.5803 33.3709 26 32.9509 26 32.4334V21.52C26 21.0024 25.5803 20.5825 25.0625 20.5825C24.5447 20.5825 24.125 21.0024 24.125 21.52V21.52Z" fill="white"/>
<path d="M28.416 21.4794L27.9395 32.3925C27.917 32.9098 28.3179 33.3473 28.8352 33.37C28.8491 33.3708 28.863 33.371 28.8767 33.371C29.3757 33.371 29.7908 32.9777 29.8128 32.4743L30.2893 21.5612C30.312 21.0439 29.9109 20.6064 29.3938 20.5837C28.8757 20.5612 28.4387 20.9621 28.416 21.4794V21.4794Z" fill="white"/>
<path d="M20.7312 20.5837C20.2141 20.6064 19.813 21.0439 19.8357 21.5612L20.3123 32.4743C20.3342 32.9777 20.7493 33.371 21.2483 33.371C21.262 33.371 21.2759 33.3708 21.2898 33.37C21.8071 33.3473 22.208 32.9098 22.1855 32.3925L21.709 21.4794C21.6863 20.9621 21.2495 20.5612 20.7312 20.5837V20.5837Z" fill="white"/>
<path d="M35.3591 16.769H29.5752V15.6567C29.5752 14.0884 28.2993 12.8125 26.731 12.8125H23.394C21.8257 12.8125 20.5498 14.0884 20.5498 15.6567V16.769H14.7659C14.248 16.769 13.8284 17.1887 13.8284 17.7065C13.8284 18.2244 14.248 18.644 14.7659 18.644H15.7678L16.9309 33.7217C16.9312 33.7261 16.9316 33.7302 16.9319 33.7346C17.0183 34.6804 17.4519 35.554 18.1533 36.1943C18.855 36.8347 19.7642 37.1875 20.7141 37.1875H29.4109C31.3889 37.1875 33.0149 35.7144 33.1931 33.761C33.24 33.2454 32.8601 32.7893 32.3445 32.7422C31.8289 32.6953 31.3728 33.075 31.3257 33.5908C31.2363 34.5723 30.4131 35.3125 29.4109 35.3125H20.7141C19.7153 35.3125 18.8936 34.564 18.7998 33.5703L17.6484 18.644H32.4766L31.6609 29.2183C31.6211 29.7344 32.0073 30.1853 32.5234 30.2251C32.5481 30.2268 32.5725 30.2278 32.5967 30.2278C33.0815 30.2278 33.4924 29.854 33.5303 29.3623L34.3572 18.644H35.3591C35.8767 18.644 36.2966 18.2244 36.2966 17.7065C36.2966 17.1887 35.877 16.769 35.3591 16.769V16.769ZM22.4248 15.6567C22.4248 15.1223 22.8596 14.6875 23.394 14.6875H26.731C27.2654 14.6875 27.7002 15.1223 27.7002 15.6567V16.769H22.4248V15.6567Z" fill="white"/>
<defs>
<linearGradient id="paint0_linear" x1="9" y1="25" x2="41" y2="25" gradientUnits="userSpaceOnUse">
<stop stop-color="#FF00D6"/>
<stop offset="1" stop-color="#FF4D00"/>
</linearGradient>
</defs>
</svg>
