<svg width="63" height="63" viewBox="0 0 63 63" fill="none" xmlns="http://www.w3.org/2000/svg">
<path d="M62.8367 53.7764C62.5364 52.3332 61.1224 51.4072 59.6792 51.7068C58.236 52.0071 57.3093 53.4211 57.6103 54.8643C57.7542 55.5581 57.5825 56.2693 57.1383 56.8157C56.8818 57.1313 56.309 57.661 55.3593 57.661H7.64066C6.69104 57.661 6.11891 57.1313 5.86169 56.8157C5.41747 56.27 5.24576 55.5581 5.39036 54.8643C7.90553 42.7814 18.5682 33.9575 30.8778 33.6683C31.0843 33.6759 31.2915 33.6815 31.5 33.6815C31.696 33.6815 31.8907 33.6766 32.0847 33.6697C40.773 33.8594 48.8079 38.2488 53.6694 45.4988C54.4904 46.7231 56.1484 47.0505 57.3733 46.2295C58.5975 45.4085 58.9249 43.7498 58.1032 42.5256C54.1469 36.6242 48.4367 32.3036 41.9187 30.0624C45.827 26.9758 48.3408 22.1964 48.3408 16.8407C48.3408 7.55452 40.7862 0 31.5 0C22.2138 0 14.6592 7.55452 14.6592 16.8407C14.6592 22.1992 17.1758 26.9813 21.0876 30.0672C17.5018 31.3012 14.1364 33.1657 11.1784 35.5988C5.55233 40.2266 1.63985 46.682 0.163283 53.7764C-0.310136 56.0503 0.257132 58.3854 1.7191 60.1845C3.17481 61.9739 5.33335 63 7.64066 63H55.3593C57.6667 63 59.8252 61.9739 61.2802 60.1845C62.7429 58.3861 63.3101 56.0503 62.8367 53.7764ZM19.9982 16.8407C19.9982 10.4986 25.1579 5.33898 31.5 5.33898C37.8422 5.33898 43.0018 10.4986 43.0018 16.8407C43.0018 23.016 38.1091 28.0679 31.9978 28.33C31.8316 28.3272 31.6662 28.3223 31.5 28.3223C31.313 28.3223 31.126 28.3251 30.9397 28.3279C24.8568 28.0345 19.9982 22.9945 19.9982 16.8407Z" fill="#622181"/>
</svg>
