<svg width="128" height="128" viewBox="0 0 128 128" fill="none" xmlns="http://www.w3.org/2000/svg">
<circle cx="64" cy="64" r="64" fill="#ECECED"/>
<path d="M95.8367 85.7764C95.5364 84.3332 94.1224 83.4072 92.6792 83.7068C91.236 84.0071 90.3093 85.4211 90.6103 86.8643C90.7542 87.5581 90.5825 88.2693 90.1383 88.8157C89.8818 89.1313 89.309 89.661 88.3593 89.661H40.6407C39.691 89.661 39.1189 89.1313 38.8617 88.8157C38.4175 88.27 38.2458 87.5581 38.3904 86.8643C40.9055 74.7814 51.5682 65.9575 63.8778 65.6683C64.0843 65.6759 64.2915 65.6815 64.5 65.6815C64.696 65.6815 64.8907 65.6766 65.0847 65.6697C73.773 65.8594 81.808 70.2488 86.6694 77.4988C87.4904 78.7231 89.1484 79.0505 90.3733 78.2295C91.5975 77.4085 91.9249 75.7498 91.1032 74.5256C87.1469 68.6242 81.4367 64.3036 74.9187 62.0624C78.827 58.9758 81.3408 54.1964 81.3408 48.8407C81.3408 39.5545 73.7862 32 64.5 32C55.2138 32 47.6592 39.5545 47.6592 48.8407C47.6592 54.1992 50.1758 58.9813 54.0876 62.0672C50.5018 63.3012 47.1364 65.1657 44.1784 67.5988C38.5523 72.2266 34.6398 78.682 33.1633 85.7764C32.6899 88.0503 33.2571 90.3854 34.7191 92.1845C36.1748 93.9739 38.3334 95 40.6407 95H88.3593C90.6667 95 92.8252 93.9739 94.2802 92.1845C95.7429 90.3861 96.3101 88.0503 95.8367 85.7764V85.7764ZM52.9982 48.8407C52.9982 42.4986 58.1579 37.339 64.5 37.339C70.8422 37.339 76.0018 42.4986 76.0018 48.8407C76.0018 55.016 71.1091 60.0679 64.9978 60.33C64.8316 60.3272 64.6662 60.3223 64.5 60.3223C64.313 60.3223 64.126 60.3251 63.9397 60.3279C57.8568 60.0345 52.9982 54.9945 52.9982 48.8407V48.8407Z" fill="#622181"/>
</svg>
