<svg width="254" height="207" viewBox="0 0 254 207" fill="none" xmlns="http://www.w3.org/2000/svg">
<g filter="url(#filter0_d)">
<path d="M34.7852 198.536L229.647 161.438C243.886 158.727 252.14 145.368 249.517 129.497C249.501 129.391 249.486 129.286 249.467 129.182L249.364 128.64C249.344 128.535 249.319 128.427 249.295 128.323C246.955 117.354 239.995 109.05 230.544 106.004L123.412 71.4785C115.375 68.8967 106.968 70.5207 100.354 75.937L13.6717 147.542C6.22051 153.653 2.80342 163.693 4.37524 174.642C4.38747 174.846 4.41447 175.051 4.45344 175.258L4.65685 176.334C4.69628 176.542 4.74951 176.749 4.81321 176.947C8.42262 192.18 20.7898 201.2 34.7852 198.536ZM241.384 130.441C243.374 141.59 237.884 150.657 227.966 152.545L33.1045 189.643C23.2535 191.518 14.8834 185.211 12.5878 174.26C11.2505 166.34 13.528 159.111 18.737 154.837L105.42 83.2316C110 79.4706 115.816 78.3475 121.37 80.1317L228.503 114.659C235.029 116.76 239.828 122.647 241.384 130.441Z" fill="url(#paint0_linear)"/>
<path d="M113.53 76.5871C115.748 76.1651 117.204 74.0124 116.781 71.7733L113.911 56.5851C126.464 51.9573 134.761 37.5898 132.135 23.6953C129.193 8.12489 113.377 -2.49482 97.5987 0.509013C81.9787 3.48268 72.0987 18.2763 75.1062 34.1898C75.5292 36.429 77.6705 37.897 79.8873 37.4749C82.1041 37.0529 83.561 34.9 83.138 32.6608C80.9892 21.2907 88.0128 10.7271 99.1297 8.61063C110.557 6.43519 121.993 14.0439 124.106 25.2239C126.146 36.0214 118.673 47.6289 108.427 49.5797C106.21 50.0017 104.755 52.1539 105.178 54.3935L108.752 73.3017C109.175 75.5409 111.314 77.0092 113.53 76.5871Z" fill="url(#paint1_linear)"/>
<path d="M85.9209 111.445C93.8137 101.627 105.017 95.2562 117.466 93.5053C128.672 91.9288 139.932 94.2326 149.565 100.004L146.911 100.378C146.001 100.506 145.367 101.35 145.495 102.263C145.623 103.176 146.463 103.812 147.373 103.684L153.957 102.758C154.867 102.631 155.501 101.787 155.373 100.873L154.542 94.921C154.414 94.0082 153.574 93.3714 152.664 93.4997C151.754 93.6276 151.12 94.4717 151.247 95.3845L151.512 97.2805C141.175 91.0124 129.06 88.5024 117.004 90.1982C103.716 92.0673 91.7571 98.8686 83.3314 109.348C82.7548 110.065 82.8666 111.117 83.5812 111.696C84.2963 112.275 85.3438 112.162 85.9209 111.445Z" fill="url(#paint2_linear)"/>
<path d="M159.685 144.581C152.187 153.849 141.598 160.085 129.867 162.138C119.319 163.984 108.5 162.334 99.0229 157.494L101.747 157.018C102.652 156.859 103.258 155.995 103.1 155.086C102.942 154.178 102.081 153.57 101.176 153.728L94.627 154.875C93.7216 155.033 93.1162 155.898 93.2739 156.806L94.3027 162.727C94.4608 163.635 95.322 164.243 96.2274 164.085C97.1324 163.926 97.7377 163.062 97.5801 162.154L97.2658 160.345C107.44 165.61 119.087 167.414 130.438 165.427C142.96 163.236 154.264 156.579 162.268 146.685C162.847 145.97 162.739 144.918 162.025 144.337C161.311 143.756 160.265 143.864 159.685 144.581Z" fill="url(#paint3_linear)"/>
<path d="M70.2491 152.387C70.6086 154.267 71.8122 155.208 73.8603 155.21C74.2546 155.213 74.6923 155.168 75.1737 155.075C78.3388 154.466 80.6493 152.954 82.1047 150.54C83.5646 148.151 83.9987 145.406 83.406 142.306C83.1733 141.085 82.7317 140.011 82.0815 139.082C81.452 138.123 80.745 137.376 79.9604 136.842C79.1707 136.283 78.3181 135.735 77.4021 135.2C76.5113 134.66 75.6833 134.173 74.9179 133.741C74.1529 133.309 73.467 132.743 72.8607 132.043C72.2796 131.337 71.9044 130.54 71.7342 129.65C71.2875 127.312 71.9155 124.965 73.6181 122.608C75.3414 120.221 77.4056 118.796 79.8113 118.333C80.2922 118.241 80.681 118.35 80.9766 118.662C81.2727 118.974 81.4545 119.308 81.5225 119.664L81.5794 120.167C81.3825 120.099 80.9298 120.134 80.2207 120.27C78.6002 120.582 77.1755 121.647 75.9477 123.464C74.7195 125.282 74.2975 127.194 74.6807 129.202C74.8363 130.015 75.2044 130.774 75.7856 131.479C76.3869 132.154 77.0728 132.72 77.8428 133.178C78.6128 133.636 79.4482 134.161 80.3486 134.752C81.244 135.317 82.0891 135.892 82.8837 136.477C83.6729 137.037 84.3799 137.783 85.0049 138.717C85.65 139.621 86.0796 140.632 86.2931 141.75C86.8803 144.825 86.1365 147.801 84.0601 150.677C81.9843 153.554 79.0851 155.35 75.3631 156.066C72.2226 156.671 70.0406 156.037 68.8168 154.164C67.8378 152.614 67.7366 150.709 68.5132 148.452C69.2897 146.194 70.7114 144.498 72.7786 143.362C73.54 142.952 74.2375 142.686 74.8705 142.564C75.5041 142.443 75.9563 142.474 76.2277 142.659C76.5198 142.814 76.7474 143.112 76.9111 143.555C74.5306 144.013 72.6764 145.372 71.3489 147.629C70.3342 149.327 69.9675 150.912 70.2491 152.387ZM83.8466 127.912C83.8708 128.039 83.7565 128.127 83.5032 128.176C83.275 128.22 83.0504 128.211 82.8283 128.148C82.6063 128.085 82.4783 127.965 82.4441 127.787C81.9491 125.195 81.8423 123.055 82.1233 121.366C82.4048 119.679 83.0268 118.742 83.9891 118.557C84.2424 118.508 84.4746 118.556 84.6856 118.7C84.8971 118.843 85.0296 119.055 85.0829 119.335C84.1619 120.698 83.6663 122.571 83.5968 124.957C83.5691 125.91 83.6522 126.896 83.8466 127.912ZM108.283 125.542C109.125 125.959 109.874 126.105 110.533 125.979C111.216 125.847 111.68 125.665 111.925 125.434C111.988 125.764 111.897 126.111 111.651 126.475C111.426 126.808 111.035 127.028 110.478 127.135C109.946 127.238 109.34 127.223 108.658 127.09C109.064 129.489 109.14 132.017 108.886 134.675C108.627 137.307 108.078 139.586 107.239 141.514C106.395 143.415 105.402 144.475 104.263 144.695C103.123 144.914 102.165 144.637 101.387 143.865C100.564 142.996 99.9788 141.646 99.6293 139.816C99.4298 138.774 99.2798 137.643 99.178 136.424C97.1158 142.671 95.2364 145.957 93.5398 146.284C91.8684 146.605 90.761 145.343 90.2171 142.497C89.6541 139.548 89.7739 136.258 90.5761 132.625C91.2817 129.723 92.1292 128.11 93.1178 127.788C93.5987 127.696 93.8903 127.917 93.9925 128.45C93.8294 129.246 93.6315 130.272 93.3993 131.528C93.1616 132.76 92.9058 134.72 92.6318 137.407C92.383 140.09 92.375 142.042 92.6081 143.262C92.8363 144.456 93.2165 145.003 93.7483 144.9C94.4065 144.773 95.2284 143.509 96.2129 141.106C97.2231 138.698 98.056 136.324 98.7122 133.984L99.7411 130.506C100.178 128.946 100.675 128.113 101.232 128.006C101.789 127.898 102.119 128.112 102.221 128.645C101.691 134.254 101.712 138.559 102.285 141.558C102.552 142.956 103.091 143.576 103.901 143.421C104.813 143.245 105.62 142.313 106.321 140.623C107.042 138.903 107.501 136.772 107.698 134.232C107.916 131.66 107.799 129.192 107.348 126.829L107.304 126.6C106.468 126.208 105.751 125.687 105.155 125.037C104.558 124.388 104.226 123.885 104.158 123.529C104.085 123.148 104.184 122.774 104.455 122.405C104.726 122.037 105.051 121.816 105.431 121.743C105.912 121.651 106.425 122 106.97 122.791C107.51 123.556 107.948 124.473 108.283 125.542ZM118.065 141.565C115.989 141.964 114.637 140.524 114.01 137.246C113.637 135.289 113.708 133.049 114.223 130.525C114.939 126.988 116.272 124.413 118.221 122.799C119.061 122.111 119.886 121.688 120.697 121.533C121.507 121.377 122.174 121.433 122.698 121.701C123.247 121.964 123.618 122.262 123.813 122.593L124.136 123.045C124.142 123.491 123.968 123.749 123.614 123.817C123.209 123.895 122.951 123.852 122.841 123.689C122.752 123.495 122.657 123.342 122.556 123.23C122.452 123.092 122.238 122.935 121.916 122.76C121.588 122.56 121.248 122.494 120.893 122.562C119.247 122.879 118.037 124.653 117.263 127.885C116.399 131.608 116.256 134.983 116.834 138.007C117.125 139.532 117.575 140.236 118.183 140.119C118.664 140.027 119.233 139.363 119.89 138.13C120.567 136.867 121.232 135.329 121.884 133.517C123.021 130.4 123.912 127.712 124.557 125.454C125.068 123.458 125.779 122.372 126.691 122.197C127.172 122.104 127.469 122.351 127.58 122.935C127.445 123.462 127.285 124.204 127.1 125.162C126.916 126.12 126.785 127.976 126.707 130.731C126.629 133.487 126.841 136.174 127.341 138.791C127.841 141.409 128.484 142.643 129.268 142.492C129.572 142.433 129.824 142.239 130.024 141.911C130.229 141.609 130.381 141.17 130.482 140.598C130.505 140.304 130.655 140.13 130.934 140.076C131.035 140.057 131.118 140.08 131.183 140.147C131.248 140.213 131.273 140.34 131.256 140.528C131.239 140.715 131.197 140.974 131.129 141.303C131.065 141.658 130.869 142.144 130.541 142.76C130.237 143.372 129.858 143.722 129.402 143.81C128.339 144.014 127.382 143.474 126.533 142.188C125.708 140.897 125.114 139.299 124.75 137.393C124.386 135.487 124.176 133.63 124.119 131.823L123.739 131.895C121.577 138.03 119.685 141.253 118.065 141.565ZM139.597 133.785C139.889 135.31 140.44 135.994 141.25 135.838C142.288 135.638 143.16 134.021 143.867 130.987C144.699 127.507 144.848 124.368 144.314 121.573C143.949 119.667 143.261 118.811 142.248 119.006C141.26 119.196 140.32 120.181 139.425 121.96C138.531 123.74 137.813 125.749 137.269 127.988C136.746 130.196 136.33 132.279 136.021 134.236C135.707 136.167 135.557 137.579 135.57 138.472C135.614 139.387 135.638 140.067 135.645 140.513C135.656 140.985 135.666 141.721 135.673 142.722C135.706 143.716 135.694 144.483 135.64 145.02C135.61 145.553 135.554 146.222 135.472 147.029C135.395 147.86 135.268 148.504 135.092 148.96C134.947 149.435 134.764 149.919 134.542 150.409C134.095 151.365 133.403 151.933 132.466 152.113C131.25 152.347 130.509 151.765 130.242 150.367C129.766 147.877 130.77 142.822 133.252 135.203C133.098 132.334 133.058 129.997 133.133 128.191C133.238 123.928 133.571 120.584 134.131 118.157C134.712 115.7 135.407 114.393 136.217 114.238C136.623 114.159 136.872 114.362 136.964 114.845C136.365 118.307 135.893 122.64 135.548 127.844L135.488 128.765L135.982 128.67C137.664 121.811 139.784 118.136 142.342 117.644C144.723 117.186 146.274 118.85 146.998 122.637C147.522 125.382 147.35 128.261 146.482 131.274C145.529 134.672 143.977 136.578 141.824 136.992C140.077 137.328 138.985 136.353 138.548 134.065C138.315 132.846 138.377 131.384 138.735 129.682C139.113 127.949 139.773 126.597 140.716 125.624C140.92 125.454 141.119 125.468 141.315 125.667C141.365 125.79 141.369 125.881 141.328 125.942C140.512 126.889 139.966 128.154 139.69 129.735C139.414 131.316 139.384 132.666 139.597 133.785ZM131.202 149.827C131.348 150.589 131.699 150.917 132.256 150.81C133.396 150.59 133.948 148.877 133.912 145.669C133.911 144.562 133.751 141.8 133.432 137.382C131.982 142.299 131.214 146.043 131.128 148.616C131.114 149.093 131.139 149.497 131.202 149.827ZM151.78 131.716C151.062 127.955 150.8 124.527 150.997 121.433C151.219 118.333 151.925 116.669 153.115 116.44C153.698 116.328 154.049 116.59 154.171 117.225C154.044 117.935 153.895 118.873 153.724 120.039C153.553 121.204 153.425 123.284 153.341 126.278C153.277 129.242 153.458 131.842 153.886 134.078C153.954 134.434 153.797 134.649 153.418 134.722C152.734 134.853 152.188 133.851 151.78 131.716ZM153.418 112.667C152.886 112.769 152.523 112.312 152.329 111.295C152.213 110.685 152.256 110.018 152.459 109.294C152.657 108.544 153.06 108.111 153.667 107.994C154.174 107.897 154.483 108.14 154.595 108.725C154.706 109.309 154.425 110.378 153.75 111.931L153.418 112.667ZM161.457 126.811C163.174 118.075 165.578 113.41 168.667 112.815C169.959 112.567 170.723 113.065 170.961 114.31C170.896 114.929 170.816 115.748 170.722 116.767C170.623 117.762 170.569 119.537 170.558 122.095C170.573 124.648 170.758 126.853 171.112 128.708C171.627 131.402 172.277 132.673 173.062 132.523C173.366 132.464 173.633 132.281 173.863 131.973C174.098 131.691 174.266 131.54 174.367 131.52C174.722 131.452 174.775 131.732 174.527 132.359C174.435 132.561 174.24 132.849 173.944 133.222C173.673 133.591 173.361 133.809 173.006 133.877C172.044 134.062 171.15 133.51 170.326 132.219C169.532 130.949 168.924 129.208 168.502 126.997C167.832 123.489 167.641 119.534 167.928 115.131C167.967 114.781 167.834 114.635 167.53 114.694C167.327 114.733 167.118 114.879 166.904 115.13C165.893 116.432 164.952 118.444 164.08 121.168C163.209 123.892 162.581 126.305 162.195 128.408C161.804 130.486 161.64 131.69 161.703 132.021C161.762 132.326 161.614 132.512 161.259 132.58C160.449 132.736 159.852 131.811 159.468 129.802C158.745 126.016 158.469 122.511 158.641 119.29C158.839 116.063 159.482 114.345 160.571 114.136C161.026 114.048 161.308 114.284 161.415 114.843C160.974 118.854 160.873 122.866 161.115 126.877L161.457 126.811Z" fill="url(#paint4_linear)"/>
</g>
<defs>
<filter id="filter0_d" x="0" y="0" width="254" height="207" filterUnits="userSpaceOnUse" color-interpolation-filters="sRGB">
<feFlood flood-opacity="0" result="BackgroundImageFix"/>
<feColorMatrix in="SourceAlpha" type="matrix" values="0 0 0 0 0 0 0 0 0 0 0 0 0 0 0 0 0 0 127 0"/>
<feOffset dy="4"/>
<feGaussianBlur stdDeviation="2"/>
<feColorMatrix type="matrix" values="0 0 0 0 0 0 0 0 0 0 0 0 0 0 0 0 0 0 0.25 0"/>
<feBlend mode="normal" in2="BackgroundImageFix" result="effect1_dropShadow"/>
<feBlend mode="normal" in="SourceGraphic" in2="effect1_dropShadow" result="shape"/>
</filter>
<linearGradient id="paint0_linear" x1="127" y1="70.2776" x2="127" y2="199" gradientUnits="userSpaceOnUse">
<stop stop-color="#FE3C72"/>
<stop offset="1" stop-color="#FF4D00"/>
</linearGradient>
<linearGradient id="paint1_linear" x1="103.594" y1="0" x2="103.594" y2="76.6594" gradientUnits="userSpaceOnUse">
<stop stop-color="#FF00D6"/>
<stop offset="1" stop-color="#FE3C72"/>
</linearGradient>
<linearGradient id="paint2_linear" x1="119.176" y1="89.6816" x2="119.176" y2="112.066" gradientUnits="userSpaceOnUse">
<stop stop-color="#FE3C72"/>
<stop offset="1" stop-color="#FF4D00"/>
</linearGradient>
<linearGradient id="paint3_linear" x1="127.945" y1="143.963" x2="127.945" y2="166.214" gradientUnits="userSpaceOnUse">
<stop stop-color="#FF4D00"/>
<stop offset="1" stop-color="#FF4D00"/>
</linearGradient>
<linearGradient id="paint4_linear" x1="121.339" y1="107.973" x2="121.338" y2="156.183" gradientUnits="userSpaceOnUse">
<stop stop-color="#FF00D6"/>
<stop offset="0.401042" stop-color="#FE3C72"/>
<stop offset="1" stop-color="#FF4D00"/>
</linearGradient>
</defs>
</svg>
