<svg width="226" height="176" viewBox="0 0 226 176" fill="none" xmlns="http://www.w3.org/2000/svg">
<path d="M50.1795 43.4667C68.8499 26.9032 92.8756 18.1522 117.828 18.8254C140.289 19.4306 161.586 27.6247 178.563 42.0509L173.243 41.9079C171.419 41.8585 169.901 43.2972 169.852 45.1201C169.803 46.9443 171.241 48.462 173.065 48.5114L186.261 48.8674C188.085 48.9168 189.603 47.4781 189.652 45.6541L189.972 33.7673C190.022 31.9443 188.584 30.4255 186.76 30.3771C184.936 30.3277 183.418 31.7664 183.369 33.5894L183.267 37.3757C165.075 21.7499 142.171 12.8725 118.006 12.2209C91.3709 11.5027 65.7251 20.8447 45.7947 38.5242C44.4307 39.7342 44.3056 41.8223 45.5154 43.1873C46.7264 44.5514 48.8145 44.6766 50.1795 43.4667Z" fill="url(#paint0_linear)"/>
<path d="M183.792 132.352C166.075 147.973 143.296 156.662 119.649 156.815C98.3889 156.952 77.7411 150.178 60.7664 137.621L66.2578 137.586C68.082 137.574 69.5513 136.087 69.5391 134.261C69.5277 132.437 68.0391 130.969 66.2151 130.98L53.0151 131.066C51.1901 131.077 49.7216 132.566 49.733 134.39L49.8098 146.281C49.8222 148.105 51.3098 149.574 53.1348 149.562C54.959 149.55 56.4273 148.063 56.4159 146.238L56.3926 142.606C74.5949 156.221 96.8126 163.568 119.692 163.42C144.932 163.257 169.248 153.983 188.162 137.307C189.529 136.101 189.661 134.013 188.454 132.646C187.247 131.277 185.162 131.145 183.792 132.352Z" fill="url(#paint1_linear)"/>
<path d="M6.08783 118.203C6.17641 121.991 8.22562 124.222 12.2361 124.898C13.0073 125.033 13.8791 125.089 14.8522 125.067C21.2499 124.918 26.2695 122.727 29.9099 118.494C33.5508 114.313 35.2994 109.099 35.1534 102.855C35.0971 100.398 34.5839 98.1562 33.6147 96.13C32.6958 94.0523 31.5556 92.3624 30.1938 91.0632C28.8305 89.7121 27.34 88.3639 25.7213 87.0186C24.1535 85.6717 22.6913 84.451 21.3337 83.3563C19.9772 82.2608 18.8193 80.9309 17.861 79.3658C16.9537 77.7991 16.48 76.1196 16.4378 74.328C16.3283 69.619 18.3264 65.2452 22.4322 61.2058C26.5883 57.115 31.0971 55.0129 35.9599 54.8998C36.932 54.8773 37.6574 55.2191 38.1343 55.9247C38.6121 56.6304 38.8588 57.342 38.8754 58.0587L38.8223 59.0587C38.4588 58.8618 37.561 58.7802 36.1277 58.8135C32.852 58.8897 29.7134 60.4996 26.7143 63.6418C23.714 66.7847 22.2615 70.378 22.3549 74.4211C22.3935 76.0591 22.866 77.6613 23.7733 79.228C24.73 80.7421 25.8879 82.072 27.246 83.2184C28.604 84.3649 30.0685 85.6631 31.6384 87.1118C33.207 88.5085 34.6736 89.9084 36.0383 91.3115C37.4006 92.6625 38.5409 94.3514 39.4592 96.3782C40.4268 98.3535 40.9372 100.467 40.9894 102.719C41.1327 108.913 38.7021 114.474 33.6944 119.405C28.6878 124.336 22.4221 126.888 14.8986 127.063C8.55062 127.211 4.48495 125.256 2.70119 121.201C1.29153 117.854 1.71665 114.105 3.97622 109.955C6.23579 105.806 9.57507 102.963 13.9952 101.426C15.6207 100.876 17.0737 100.586 18.3532 100.556C19.6338 100.527 20.509 100.737 20.9802 101.186C21.5015 101.584 21.8495 102.242 22.0251 103.16C17.2132 103.272 13.1375 105.313 9.79879 109.282C7.25603 112.261 6.01909 115.234 6.08783 118.203ZM40.7272 74.9163C40.733 75.1718 40.4803 75.3058 39.9682 75.3183C39.5072 75.3281 39.0704 75.2366 38.6559 75.0414C38.2415 74.8461 38.0304 74.5694 38.0216 74.211C37.9006 68.99 38.392 64.7793 39.4948 61.5776C40.5985 58.3771 42.123 56.754 44.0683 56.7091C44.5804 56.6967 45.0195 56.8657 45.3856 57.216C45.7528 57.5656 45.9428 58.0223 45.9559 58.5853C43.7059 60.9425 42.1222 64.4357 41.2055 69.0668C40.839 70.9187 40.6793 72.8681 40.7272 74.9163ZM89.3585 78.3183C90.8698 79.4094 92.2906 79.9398 93.621 79.9094C95.0034 79.8767 95.9711 79.675 96.5262 79.3037C96.5413 79.9694 96.2493 80.616 95.6491 81.2443C95.099 81.8213 94.2618 82.1219 93.1349 82.1479C92.0609 82.1735 90.8775 81.9446 89.5855 81.4622C89.5952 86.2762 88.9167 91.2342 87.5498 96.3364C86.1824 101.387 84.3604 105.654 82.0855 109.139C79.8103 112.572 77.5203 114.315 75.2167 114.369C72.9131 114.422 71.127 113.567 69.8561 111.804C68.5301 109.838 67.8248 107.012 67.7394 103.326C67.6898 101.228 67.766 98.9729 67.9658 96.5607C61.8827 108.072 57.1265 113.867 53.697 113.947C50.3185 114.025 48.5629 111.198 48.4295 105.465C48.2919 99.5278 49.6035 93.1469 52.3636 86.3225C54.6953 80.8904 56.8829 78.0227 58.9242 77.7193C59.8963 77.6968 60.395 78.2236 60.4205 79.2986C59.8406 80.7973 59.1172 82.7343 58.2513 85.1098C57.3826 87.4351 56.2403 91.1747 54.8242 96.3284C53.4589 101.482 52.8043 105.287 52.8616 107.744C52.9175 110.149 53.4832 111.34 54.5583 111.315C55.8888 111.284 57.9122 109.086 60.6267 104.721C63.3932 100.354 65.8013 95.9968 67.8521 91.6471L71.0055 85.198C72.372 82.2981 73.6182 80.8351 74.744 80.809C75.8699 80.7829 76.446 81.3074 76.4706 82.3823C73.5973 93.1523 72.2299 101.558 72.3707 107.597C72.4358 110.413 73.2879 111.801 74.9257 111.764C76.7681 111.721 78.6533 110.166 80.5791 107.1C82.5554 103.98 84.1521 99.9744 85.3693 95.0814C86.6371 90.135 87.2159 85.2819 87.1058 80.5221L87.095 80.0609C85.5852 79.0208 84.3524 77.7686 83.3973 76.3054C82.441 74.8431 81.9548 73.7526 81.9381 73.036C81.9208 72.2686 82.2367 71.5702 82.8879 70.9402C83.539 70.3103 84.2484 69.9862 85.0169 69.9691C85.989 69.9466 86.8796 70.7966 87.6878 72.5191C88.4946 74.1895 89.0514 76.1233 89.3585 78.3183ZM103.271 112.795C99.0737 112.892 96.8979 109.639 96.744 103.037C96.6528 99.0953 97.525 94.7477 99.3609 89.9929C101.92 83.3264 105.372 78.7394 109.719 76.2319C111.588 75.1644 113.343 74.6111 114.981 74.5735C116.619 74.535 117.906 74.8635 118.845 75.5584C119.834 76.2525 120.465 76.9555 120.738 77.6655L121.221 78.6531C121.088 79.527 120.663 79.9719 119.947 79.9886C119.127 80.0073 118.637 79.8399 118.476 79.4853C118.363 79.0782 118.227 78.7481 118.068 78.4962C117.908 78.1925 117.54 77.8165 116.967 77.3696C116.391 76.8705 115.745 76.6293 115.029 76.646C111.702 76.7237 108.752 79.7878 106.178 85.8395C103.268 92.8212 101.882 99.3581 102.025 105.449C102.096 108.52 102.746 110.041 103.975 110.013C104.947 109.991 106.278 108.884 107.969 106.693C109.709 104.451 111.514 101.669 113.383 98.3478C116.63 92.6393 119.254 87.6872 121.257 83.4917C122.911 79.766 124.66 77.8814 126.504 77.8387C127.476 77.8162 127.976 78.394 128.003 79.5706C127.565 80.5547 127.008 81.9499 126.333 83.7581C125.659 85.5664 124.794 89.1458 123.741 94.4962C122.687 99.8476 122.222 105.159 122.345 110.431C122.467 115.703 123.322 118.321 124.908 118.284C125.523 118.27 126.079 117.975 126.578 117.4C127.077 116.877 127.52 116.072 127.904 114.987C128.045 114.421 128.397 114.131 128.96 114.118C129.164 114.114 129.319 114.186 129.426 114.338C129.531 114.489 129.537 114.745 129.443 115.105C129.349 115.466 129.182 115.957 128.94 116.577C128.699 117.248 128.157 118.131 127.312 119.227C126.517 120.32 125.66 120.878 124.739 120.9C122.589 120.95 120.892 119.581 119.65 116.793C118.458 114.004 117.817 110.689 117.728 106.851C117.639 103.012 117.836 99.3197 118.315 95.7753L117.548 95.7926C111.306 107.051 106.546 112.719 103.271 112.795ZM147.985 104.688C148.057 107.76 148.912 109.276 150.55 109.237C152.648 109.189 154.886 106.321 157.263 100.631C160.031 94.1145 161.349 88.0399 161.219 82.4097C161.129 78.5709 160.06 76.6751 158.013 76.7231C156.017 76.7695 153.853 78.3816 151.519 81.5593C149.186 84.7381 147.121 88.4223 145.323 92.6126C143.575 96.7495 142.079 100.677 140.834 104.393C139.588 108.059 138.831 110.765 138.565 112.512C138.35 114.31 138.176 115.646 138.043 116.519C137.911 117.444 137.689 118.883 137.375 120.837C137.114 122.788 136.84 124.28 136.558 125.311C136.325 126.341 135.997 127.628 135.572 129.175C135.148 130.772 134.69 131.987 134.196 132.818C133.757 133.698 133.239 134.581 132.645 135.466C131.455 137.184 129.914 138.064 128.02 138.108C125.564 138.165 124.303 136.786 124.236 133.971C124.121 128.955 127.74 119.421 135.095 105.371C135.732 99.723 136.419 95.1497 137.158 91.6495C138.758 83.3672 140.503 76.9505 142.395 72.3998C144.337 67.7965 146.126 65.4756 147.764 65.438C148.584 65.4183 149.004 65.8955 149.027 66.8676C146.721 73.4256 144.379 81.7254 142 91.7672L141.58 93.5443L142.579 93.5212C148.119 80.6909 153.473 74.2165 158.644 74.0961C163.455 73.9846 165.949 77.742 166.127 85.3684C166.255 90.8968 164.976 96.4568 162.289 102.05C159.312 108.368 155.648 111.577 151.297 111.679C147.766 111.761 145.946 109.498 145.839 104.891C145.781 102.435 146.382 99.6041 147.639 96.399C148.946 93.1423 150.682 90.721 152.847 89.1334C153.302 88.8671 153.688 88.9612 154.007 89.4141C154.063 89.669 154.042 89.849 153.941 89.9538C152.033 91.5348 150.55 93.822 149.493 96.8174C148.435 99.8116 147.933 102.436 147.985 104.688ZM126.294 133.231C126.329 134.767 126.911 135.522 128.036 135.496C130.34 135.442 131.982 132.28 132.963 126.009C133.323 123.85 133.913 118.408 134.734 109.682C130.286 118.799 127.556 125.853 126.545 130.844C126.363 131.771 126.278 132.566 126.294 133.231ZM172.52 104.655C172.345 97.0795 172.955 90.3051 174.353 84.332C175.802 78.3574 177.729 75.3427 180.135 75.2869C181.313 75.2593 181.915 75.8857 181.945 77.1652C181.464 78.5082 180.865 80.2887 180.149 82.5078C179.433 84.7258 178.501 88.7421 177.357 94.5568C176.261 100.318 175.765 105.451 175.871 109.955C175.887 110.672 175.512 111.039 174.744 111.057C173.362 111.089 172.62 108.955 172.52 104.655ZM181.964 68.0233C180.889 68.0479 180.327 67.037 180.279 64.9889C180.251 63.7603 180.554 62.4737 181.189 61.1271C181.822 59.7296 182.752 59.0167 183.981 58.9876C185.005 58.9647 185.53 59.5405 185.558 60.7182C185.585 61.895 184.684 63.8884 182.854 66.6964L181.964 68.0233ZM193.076 98.2624C199.299 81.7808 205.534 73.4676 211.778 73.3216C214.389 73.2617 215.723 74.4852 215.782 76.9935C215.451 78.1792 215.026 79.7505 214.508 81.7088C213.989 83.6163 213.302 87.063 212.444 92.0508C211.638 97.0372 211.278 101.399 211.365 105.136C211.491 110.561 212.347 113.255 213.934 113.219C214.549 113.205 215.132 112.935 215.682 112.41C216.235 111.936 216.614 111.696 216.819 111.692C217.535 111.675 217.548 112.238 216.858 113.381C216.61 113.745 216.135 114.243 215.433 114.874C214.782 115.504 214.098 115.827 213.381 115.844C211.436 115.889 209.867 114.517 208.677 111.728C207.537 108.988 206.915 105.392 206.813 100.94C206.648 93.8752 207.569 86.0953 209.573 77.5987C209.762 76.9279 209.55 76.6002 208.936 76.6148C208.526 76.6241 208.07 76.8396 207.568 77.2605C205.161 79.4676 202.659 83.0856 200.061 88.1131C197.464 93.1417 195.443 97.6444 193.999 101.621C192.554 105.547 191.839 107.843 191.854 108.508C191.869 109.122 191.518 109.438 190.801 109.454C189.163 109.493 188.297 107.49 188.203 103.446C188.026 95.8192 188.633 88.8913 190.025 82.6617C191.468 76.4315 193.289 73.2905 195.49 73.2399C196.411 73.218 196.885 73.7701 196.911 74.8969C194.735 82.5786 193.225 90.3724 192.385 98.2783L193.076 98.2624Z" fill="url(#paint2_linear)"/>
<defs>
<linearGradient id="paint0_linear" x1="122.428" y1="11.9265" x2="115.102" y2="55.6025" gradientUnits="userSpaceOnUse">
<stop stop-color="#FE3C72"/>
<stop offset="1" stop-color="#FF4D00"/>
</linearGradient>
<linearGradient id="paint1_linear" x1="121.834" y1="120.721" x2="114.551" y2="164.137" gradientUnits="userSpaceOnUse">
<stop stop-color="#FF4D00"/>
<stop offset="1" stop-color="#FF4D00"/>
</linearGradient>
<linearGradient id="paint2_linear" x1="120.677" y1="48.3272" x2="104.895" y2="142.392" gradientUnits="userSpaceOnUse">
<stop stop-color="#FF00D6"/>
<stop offset="0.401042" stop-color="#FE3C72"/>
<stop offset="1" stop-color="#FF4D00"/>
</linearGradient>
</defs>
</svg>
