<svg width="70" height="54" viewBox="0 0 70 54" fill="none" xmlns="http://www.w3.org/2000/svg">
<path d="M15.3685 13.2602C21.2038 8.08743 28.7121 5.3538 36.5095 5.56273C43.5285 5.75054 50.1832 8.30798 55.4875 12.8116L53.8251 12.7672C53.2552 12.7518 52.7807 13.2011 52.7653 13.7703C52.75 14.3399 53.1992 14.8137 53.7692 14.8291L57.8928 14.9395C58.4628 14.9549 58.9372 14.5056 58.9528 13.9361L59.0533 10.2245C59.0688 9.65528 58.6197 9.18114 58.0496 9.16611C57.4797 9.15077 57.0052 9.60007 56.9898 10.1693L56.9578 11.3515C51.2738 6.47346 44.1169 3.70275 36.5655 3.50051C28.2422 3.27762 20.2276 6.1959 13.9986 11.7172C13.5723 12.0951 13.5331 12.7471 13.9111 13.1732C14.2894 13.5991 14.9419 13.638 15.3685 13.2602Z" fill="url(#paint0_linear)"/>
<path d="M57.1224 40.9959C51.585 45.8744 44.4663 48.5883 37.077 48.6374C30.4332 48.6812 23.9813 46.5671 18.6775 42.6474L20.3935 42.6362C20.9635 42.6323 21.4228 42.1678 21.419 41.5979C21.4156 41.0283 20.9505 40.5699 20.3805 40.5736L16.2556 40.6009C15.6853 40.6045 15.2263 41.0694 15.2298 41.6389L15.2532 45.3519C15.2569 45.9215 15.7217 46.3799 16.292 46.3763C16.8621 46.3723 17.321 45.9078 17.3175 45.3382L17.3104 44.2039C22.9978 48.4543 29.9403 50.7471 37.0901 50.6998C44.9773 50.6476 52.5764 47.7507 58.4876 42.5429C58.9149 42.1661 58.9564 41.5142 58.5791 41.0872C58.2019 40.66 57.5504 40.619 57.1224 40.9959Z" fill="url(#paint1_linear)"/>
<path d="M1.59022 36.5916C1.6177 37.7743 2.25792 38.4706 3.51109 38.6814C3.75208 38.7236 4.02448 38.7411 4.32857 38.7341C6.32778 38.6873 7.89645 38.003 9.03427 36.6811C10.1722 35.3754 10.7189 33.7475 10.6736 31.798C10.6562 31.0308 10.4959 30.3309 10.1932 29.6983C9.90617 29.0497 9.54998 28.5221 9.1245 28.1166C8.69858 27.6948 8.23289 27.2739 7.72713 26.854C7.2373 26.4335 6.78045 26.0525 6.35628 25.7108C5.93247 25.3688 5.5707 24.9537 5.27134 24.4651C4.9879 23.9759 4.83998 23.4516 4.8269 22.8922C4.79294 21.422 5.41756 20.0563 6.70079 18.7948C7.99972 17.5174 9.40879 16.8608 10.9283 16.8252C11.2321 16.8182 11.4588 16.9248 11.6077 17.1451C11.757 17.3654 11.8341 17.5876 11.8392 17.8113L11.8226 18.1235C11.709 18.0621 11.4284 18.0367 10.9806 18.0472C9.95694 18.0711 8.97609 18.574 8.03873 19.5552C7.10101 20.5366 6.64693 21.6586 6.6759 22.921C6.68786 23.4324 6.8354 23.9326 7.11884 24.4217C7.41771 24.8944 7.77948 25.3095 8.20378 25.6674C8.62809 26.0253 9.08563 26.4305 9.57615 26.8827C10.0662 27.3187 10.5244 27.7557 10.9508 28.1937C11.3764 28.6155 11.7326 29.1427 12.0195 29.7755C12.3217 30.3922 12.4811 31.052 12.4973 31.7551C12.5417 33.689 11.7819 35.4255 10.2168 36.9652C8.65203 38.505 6.69397 39.3023 4.34295 39.3573C2.35931 39.4038 1.08896 38.7938 0.531785 37.5279C0.0914707 36.4828 0.224524 35.3122 0.930839 34.0165C1.63715 32.7209 2.68079 31.8331 4.06211 31.353C4.57008 31.181 5.02412 31.0905 5.42396 31.0811C5.82411 31.0718 6.09759 31.1376 6.24481 31.2778C6.40771 31.4019 6.51642 31.6072 6.57124 31.8937C5.06758 31.9291 3.79385 32.5666 2.75034 33.8061C1.9556 34.7361 1.56891 35.6645 1.59022 36.5916ZM12.4169 23.0745C12.4187 23.1543 12.3398 23.1962 12.1797 23.2001C12.0357 23.2032 11.8992 23.1746 11.7697 23.1137C11.6402 23.0528 11.5742 22.9664 11.5715 22.8545C11.534 21.2244 11.6878 19.9097 12.0326 18.91C12.3776 17.9107 12.8541 17.4038 13.462 17.3897C13.622 17.3858 13.7592 17.4385 13.8736 17.5479C13.9883 17.657 14.0477 17.7996 14.0517 17.9753C13.3485 18.7115 12.8534 19.8022 12.5667 21.2482C12.4521 21.8264 12.4021 22.4351 12.4169 23.0745ZM27.6133 24.134C28.0855 24.4746 28.5295 24.6401 28.9452 24.6306C29.3772 24.6203 29.6796 24.5572 29.8531 24.4413C29.8577 24.6491 29.7664 24.851 29.5789 25.0472C29.4069 25.2274 29.1453 25.3213 28.7932 25.3295C28.4576 25.3375 28.0878 25.2661 27.6841 25.1156C27.6868 26.6186 27.4745 28.1667 27.0471 29.7598C26.6195 31.3367 26.0499 32.6691 25.3389 33.7573C24.6277 34.8292 23.9121 35.3736 23.1922 35.3905C22.4724 35.4074 21.9143 35.1404 21.5172 34.5902C21.103 33.9763 20.8828 33.0941 20.8563 31.9433C20.8409 31.2882 20.8648 30.584 20.9274 29.8309C19.0259 33.4253 17.5393 35.2349 16.4676 35.26C15.4119 35.2846 14.8635 34.4022 14.8221 32.6122C14.7794 30.7584 15.1896 28.766 16.0525 26.6352C16.7814 24.939 17.4652 24.0435 18.1031 23.9487C18.4068 23.9416 18.5627 24.106 18.5706 24.4417C18.3893 24.9097 18.1631 25.5145 17.8924 26.2562C17.6208 26.9823 17.2636 28.1499 16.8208 29.7591C16.3939 31.3681 16.1892 32.5562 16.2069 33.3234C16.2242 34.0744 16.401 34.4462 16.7369 34.4382C17.1527 34.4284 17.7851 33.7421 18.6336 32.3791C19.4983 31.0156 20.251 29.6549 20.8921 28.2968L21.8779 26.283C22.3051 25.3775 22.6946 24.9207 23.0464 24.9125C23.3982 24.9043 23.5782 25.068 23.5858 25.4036C22.6873 28.7664 22.2596 31.3909 22.3032 33.2765C22.3234 34.1556 22.5896 34.589 23.1014 34.5771C23.6771 34.5637 24.2663 34.0782 24.8683 33.1206C25.486 32.1467 25.9852 30.8958 26.3658 29.368C26.7623 27.8236 26.9434 26.3083 26.9093 24.8222L26.9059 24.6782C26.4342 24.3536 26.049 23.9627 25.7506 23.5059C25.4519 23.0494 25.3 22.7089 25.2948 22.4852C25.2895 22.2456 25.3882 22.0275 25.5917 21.8308C25.7953 21.6341 26.017 21.5328 26.2571 21.5274C26.5608 21.5204 26.8391 21.7857 27.0916 22.3235C27.3436 22.845 27.5175 23.4487 27.6133 24.134ZM31.9587 34.8976C30.6472 34.9281 29.9675 33.9126 29.9198 31.8512C29.8915 30.6206 30.1643 29.2632 30.7383 27.7785C31.5383 25.697 32.6174 24.2646 33.9758 23.4815C34.56 23.1481 35.1084 22.9752 35.6202 22.9634C36.132 22.9513 36.5343 23.0537 36.8277 23.2707C37.1366 23.4873 37.3336 23.7068 37.4189 23.9284L37.5699 24.2368C37.5281 24.5096 37.3955 24.6486 37.1715 24.6538C36.9155 24.6597 36.7624 24.6075 36.7119 24.4968C36.6769 24.3696 36.6343 24.2666 36.5845 24.188C36.5345 24.0932 36.4196 23.9758 36.2406 23.8363C36.0608 23.6805 35.8589 23.6052 35.635 23.6105C34.5954 23.6349 33.6733 24.5918 32.8687 26.4813C31.959 28.6614 31.5257 30.7024 31.5698 32.604C31.5918 33.5628 31.7949 34.0378 32.1788 34.029C32.4826 34.0219 32.8987 33.6762 33.4272 32.9922C33.971 32.2921 34.5352 31.4235 35.1195 30.3863C36.1345 28.6038 36.9548 27.0575 37.5809 25.7475C38.098 24.5841 38.6446 23.9956 39.2206 23.9822C39.5244 23.9751 39.6807 24.1555 39.689 24.5229C39.5521 24.8301 39.3782 25.2658 39.167 25.8304C38.9561 26.395 38.6859 27.5126 38.3564 29.1832C38.0268 30.8541 37.8812 32.5124 37.9192 34.1584C37.9572 35.8044 38.2241 36.6219 38.7197 36.6102C38.9118 36.6056 39.0857 36.5135 39.2416 36.3341C39.3978 36.1706 39.536 35.9193 39.6563 35.5807C39.7003 35.4038 39.8102 35.3133 39.9861 35.3092C40.05 35.3079 40.0985 35.3306 40.1317 35.3779C40.1647 35.4249 40.1664 35.505 40.1371 35.6175C40.1077 35.7301 40.0553 35.8834 39.9797 36.0769C39.9046 36.2865 39.7349 36.5624 39.4709 36.9044C39.2224 37.2459 38.9546 37.4201 38.6667 37.427C37.9949 37.4427 37.4647 37.0152 37.0768 36.1449C36.7044 35.2743 36.5045 34.2394 36.4768 33.0409C36.4492 31.8424 36.5108 30.6895 36.661 29.5829L36.4212 29.5883C34.4698 33.1038 32.9823 34.8736 31.9587 34.8976ZM45.9317 32.3641C45.954 33.323 46.2211 33.7963 46.7329 33.7842C47.3885 33.7689 48.0881 32.8733 48.8312 31.0968C49.6966 29.062 50.1088 27.1653 50.0684 25.4074C50.0404 24.2089 49.7067 23.617 49.067 23.6321C48.4432 23.6467 47.7668 24.1502 47.0373 25.1425C46.3081 26.1351 45.6626 27.2855 45.1005 28.5939C44.5543 29.8856 44.0864 31.112 43.6972 32.2723C43.3075 33.4168 43.0711 34.2618 42.9876 34.8072C42.9205 35.3687 42.866 35.7857 42.8243 36.0583C42.783 36.3471 42.7135 36.7964 42.6154 37.4065C42.5336 38.0159 42.4481 38.4815 42.3597 38.8036C42.287 39.1251 42.1843 39.5271 42.0515 40.0101C41.9189 40.5087 41.7756 40.888 41.6214 41.1475C41.484 41.4224 41.3223 41.698 41.1365 41.9743C40.7646 42.5107 40.2831 42.7856 39.6911 42.7995C38.9236 42.8176 38.5295 42.3869 38.509 41.5081C38.4731 39.9419 39.6045 36.9651 41.9038 32.578C42.1033 30.8144 42.3182 29.3865 42.5491 28.2937C43.0496 25.7076 43.5954 23.7041 44.1869 22.2832C44.7937 20.8458 45.3531 20.1211 45.8649 20.1093C46.121 20.1031 46.2525 20.252 46.2595 20.5555C45.5386 22.6032 44.8062 25.1947 44.0622 28.3301L43.931 28.885L44.243 28.8777C45.9748 24.8715 47.6485 22.8498 49.2641 22.8119C50.7677 22.7768 51.5468 23.9498 51.6019 26.3309C51.6417 28.057 51.2415 29.793 50.4018 31.5396C49.4711 33.5123 48.3259 34.5144 46.9663 34.5464C45.8629 34.5722 45.2943 33.866 45.2611 32.4275C45.2432 31.6606 45.4311 30.7767 45.8242 29.776C46.2327 28.7591 46.7752 28.003 47.4519 27.5072C47.5943 27.424 47.7148 27.4534 47.8143 27.5948C47.832 27.6743 47.8254 27.7305 47.7939 27.7633C47.1973 28.257 46.7338 28.9712 46.4033 29.9065C46.0726 30.8414 45.9156 31.6607 45.9317 32.3641ZM39.152 41.277C39.163 41.7566 39.3446 41.9921 39.6964 41.9839C40.4162 41.967 40.9294 40.9797 41.2363 39.0217C41.349 38.3475 41.5338 36.6483 41.7908 33.9239C40.4002 36.7706 39.5468 38.9734 39.2307 40.5316C39.1736 40.8209 39.147 41.0694 39.152 41.277ZM53.5987 32.3522C53.5444 29.987 53.7354 27.8719 54.1724 26.0069C54.6256 24.1414 55.2281 23.2001 55.9797 23.1825C56.3478 23.1738 56.5361 23.3693 56.5453 23.7688C56.395 24.1882 56.2077 24.7441 55.9839 25.437C55.7598 26.1296 55.4685 27.3836 55.1105 29.1991C54.768 30.998 54.6127 32.6005 54.6453 34.0069C54.6505 34.2307 54.533 34.3452 54.2932 34.351C53.8612 34.361 53.6297 33.6947 53.5987 32.3522ZM56.5516 20.9145C56.2157 20.9223 56.0403 20.6067 56.0255 19.9672C56.0167 19.5836 56.1115 19.1819 56.3099 18.7614C56.5077 18.3251 56.7986 18.1024 57.1826 18.0933C57.5025 18.0861 57.6666 18.2658 57.6751 18.6335C57.6837 19.001 57.402 19.6234 56.83 20.5002L56.5516 20.9145ZM60.0224 30.3552C61.9681 25.209 63.9166 22.6131 65.8678 22.5671C66.6837 22.5483 67.1005 22.9302 67.1187 23.7134C67.0153 24.0836 66.8825 24.5742 66.7205 25.1856C66.5583 25.7812 66.3432 26.8574 66.0748 28.4147C65.8227 29.9716 65.7101 31.3335 65.7371 32.5002C65.7762 34.1942 66.0436 35.0352 66.5395 35.0239C66.7316 35.0193 66.9137 34.9352 67.0857 34.7712C67.2585 34.6231 67.3769 34.5483 67.4409 34.547C67.6648 34.5417 67.6688 34.7175 67.453 35.0742C67.3756 35.1879 67.2271 35.3435 67.0077 35.5404C66.8042 35.7371 66.5905 35.8381 66.3666 35.8434C65.7587 35.8575 65.2686 35.4294 64.8966 34.5585C64.5406 33.7033 64.3466 32.5805 64.3147 31.1904C64.2637 28.9847 64.5518 26.5556 65.1786 23.9027C65.2379 23.6932 65.1714 23.5909 64.9796 23.5955C64.8514 23.5984 64.7089 23.6657 64.5522 23.7971C63.7998 24.4864 63.0178 25.6161 62.2058 27.186C61.3938 28.7562 60.7621 30.1621 60.3107 31.4039C59.8588 32.6298 59.6354 33.3465 59.6401 33.5543C59.6446 33.746 59.5349 33.8444 59.311 33.8497C58.7991 33.8618 58.5284 33.2365 58.4992 31.9738C58.4444 29.5927 58.6346 27.4296 59.0699 25.4845C59.521 23.5392 60.0904 22.5585 60.7781 22.5425C61.066 22.5356 61.2142 22.708 61.2222 23.0598C60.5416 25.4583 60.0695 27.8918 59.8065 30.3602L60.0224 30.3552Z" fill="url(#paint2_linear)"/>
<defs>
<linearGradient id="paint0_linear" x1="37.9474" y1="3.40836" x2="35.6636" y2="17.0475" gradientUnits="userSpaceOnUse">
<stop stop-color="#FE3C72"/>
<stop offset="1" stop-color="#FF4D00"/>
</linearGradient>
<linearGradient id="paint1_linear" x1="37.7616" y1="37.3673" x2="35.4913" y2="50.925" gradientUnits="userSpaceOnUse">
<stop stop-color="#FF4D00"/>
<stop offset="1" stop-color="#FF4D00"/>
</linearGradient>
<linearGradient id="paint2_linear" x1="37.4016" y1="14.7684" x2="32.4827" y2="44.1415" gradientUnits="userSpaceOnUse">
<stop stop-color="#FF00D6"/>
<stop offset="0.401042" stop-color="#FE3C72"/>
<stop offset="1" stop-color="#FF4D00"/>
</linearGradient>
</defs>
</svg>
